<svg xmlns="http://www.w3.org/2000/svg" width="24" height="24" viewBox="0 0 24 24"><defs><style>.a{fill:red;opacity:0;}.b{fill:#9a9a9a;}</style></defs><rect class="a" width="24" height="24"/><path class="b" d="M18.562,1.375a2.062,2.062,0,1,0,2.062,2.062A2.062,2.062,0,0,0,18.562,1.375ZM15.125,3.437a3.437,3.437,0,1,1,.829,2.238L6.717,9.964a3.435,3.435,0,0,1,0,2.068l9.237,4.289a3.437,3.437,0,1,1-.671,1.2L6.046,13.236a3.437,3.437,0,1,1,0-4.476l9.237-4.289a3.436,3.436,0,0,1-.158-1.034ZM3.437,8.936A2.062,2.062,0,1,0,5.5,11,2.062,2.062,0,0,0,3.437,8.936ZM18.562,16.5a2.062,2.062,0,1,0,2.062,2.062A2.062,2.062,0,0,0,18.562,16.5Z" transform="translate(1 1)"/></svg>