<svg xmlns="http://www.w3.org/2000/svg" width="16" height="16" viewBox="0 0 16 16">
    <circle data-name="타원 1426" cx="8" cy="8" r="8" style="fill:#a8a8a8"/>
    <path data-name="패스 8059" d="M3.846-.853v-.5c0-.709.2-.892.819-1.491A3.341 3.341 0 0 0 6.12-5.375v-.171c0-1.332-1.039-2.286-2.836-2.286A3.853 3.853 0 0 0 .473-6.708l.856 1.076a2.7 2.7 0 0 1 1.907-.819c.966 0 1.32.452 1.32.953v.122c0 .636-.134.88-1.222 1.882a2.246 2.246 0 0 0-.941 2.1v.538zM2.319 1.75h1.613V.161H2.319z" transform="translate(4.719 11.018)" style="fill:#fff"/>
</svg>
