<svg xmlns="http://www.w3.org/2000/svg" width="18" height="18">
    <g data-name="타원 1426" style="stroke:#000">
        <circle cx="9" cy="9" r="9" style="stroke:none"/>
        <circle cx="9" cy="9" r="8.5" style="fill:none"/>
    </g>
    <path data-name="패스 8059" d="M4.268.019v-.563c0-.8.22-1 .921-1.678.852-.811 1.636-1.5 1.636-2.846v-.193c0-1.5-1.169-2.571-3.19-2.571A4.335 4.335 0 0 0 .473-6.567l.963 1.21a3.041 3.041 0 0 1 2.145-.921c1.086 0 1.485.509 1.485 1.072v.138c0 .715-.151.99-1.375 2.117A2.527 2.527 0 0 0 2.632-.586v.605zM2.549 2.948h1.815V1.161H2.549z" transform="translate(5.368 11.416)" style="fill:#fff"/>
</svg>
