<svg xmlns="http://www.w3.org/2000/svg" width="605" height="1636" viewBox="0 0 605 1636"><defs><style>.a{fill:#f2f2f2;}.b{fill:#5a5a5a;}.b,.d,.i{font-size:15px;}.b,.i{font-family:NotoSansKR-Regular, Noto Sans KR;}.b,.c,.d,.i{letter-spacing:-0.02em;}.c{font-size:20px;}.c,.j{font-family:NotoSansKR-Bold, Noto Sans KR;font-weight:700;}.d,.e,.f{fill:#2a534c;}.d{font-family:NotoSansKR-Medium, Noto Sans KR;font-weight:500;}.e{opacity:0;}.f{stroke:#2a534c;stroke-width:0.5px;}.g{fill:none;stroke:#b7b7b7;stroke-dasharray:6 4;}.h{fill:#db6947;}.i{fill:#fff;}</style></defs><rect class="a" width="605" height="1636"/><text class="b" transform="translate(32 111)"><tspan x="0" y="0">원하는 타일의 예상 견적 확인 후, 무료 방문상담을 신청해 주세요.</tspan></text><text class="b" transform="translate(32 373)"><tspan x="0" y="0">상담원이 서비스 안내와 함께 현장 상황 확인 및 무료 방문 컨설팅 일자를 조율해드립니다.</tspan></text><text class="b" transform="translate(32 635)"><tspan x="0" y="0">반장님이 실측 결과가 반영된 최종 견적서를 작성해드리고, 시공 스케줄을 조율해드립니다.</tspan></text><text class="b" transform="translate(32 945)"><tspan x="0" y="0">모바일로 시공 일자를 확정한 후, 최종 견적서 계약을 진행해 주세요.</tspan></text><text class="b" transform="translate(32 1207)"><tspan x="0" y="0">약속된 시공 일정에 맞춰 시공팀이 공사를 진행합니다.</tspan></text><text class="b" transform="translate(32 1469)"><tspan x="0" y="0">시공이 끝나면 반장님께서 시공결과 및 서비스 만족도를 검토합니다.</tspan></text><text class="c" transform="translate(32 79)"><tspan x="0" y="0">1. 타일 선택 후 무료 방문상담 신청</tspan></text><text class="c" transform="translate(32 341)"><tspan x="0" y="0">2. 서비스 상담 진행</tspan></text><text class="c" transform="translate(32 603)"><tspan x="0" y="0">3. 무료 방문 컨설팅 진행</tspan></text><text class="c" transform="translate(32 913)"><tspan x="0" y="0">4. 최종 견적서 계약</tspan></text><text class="c" transform="translate(32 1175)"><tspan x="0" y="0">5. 직영팀 시공</tspan></text><text class="c" transform="translate(32 1437)"><tspan x="0" y="0">6. 시공 후 &amp; 무상 A/S 1년</tspan></text><text class="d" transform="translate(56 157)"><tspan x="0" y="0">타일 상품 선택</tspan></text><rect class="e" width="16" height="16" transform="translate(32 143)"/><path class="f" d="M13.854,3.646a.5.5,0,0,1,0,.707h0l-7,7a.5.5,0,0,1-.707,0h0l-3.5-3.5a.5.5,0,0,1,.708-.708L6.5,10.293l6.646-6.647a.5.5,0,0,1,.707,0Z" transform="translate(32.001 143.501)"/><rect class="e" width="16" height="16" transform="translate(32 203)"/><path class="f" d="M13.854,3.646a.5.5,0,0,1,0,.707h0l-7,7a.5.5,0,0,1-.707,0h0l-3.5-3.5a.5.5,0,0,1,.708-.708L6.5,10.293l6.646-6.647a.5.5,0,0,1,.707,0Z" transform="translate(32.001 203.501)"/><rect class="e" width="16" height="16" transform="translate(32 173)"/><path class="f" d="M13.854,3.646a.5.5,0,0,1,0,.707h0l-7,7a.5.5,0,0,1-.707,0h0l-3.5-3.5a.5.5,0,0,1,.708-.708L6.5,10.293l6.646-6.647a.5.5,0,0,1,.707,0Z" transform="translate(32.001 173.501)"/><text class="d" transform="translate(56 187)"><tspan x="0" y="0">예상 견적 확인</tspan></text><text class="d" transform="translate(56 217)"><tspan x="0" y="0">무료 방문상담 신청 (1일이내 연락)</tspan></text><text class="d" transform="translate(56 419)"><tspan x="0" y="0">서비스·유의 사항 안내</tspan></text><rect class="e" width="16" height="16" transform="translate(32 405)"/><path class="f" d="M13.854,3.646a.5.5,0,0,1,0,.707h0l-7,7a.5.5,0,0,1-.707,0h0l-3.5-3.5a.5.5,0,0,1,.708-.708L6.5,10.293l6.646-6.647a.5.5,0,0,1,.707,0Z" transform="translate(32.001 405.501)"/><rect class="e" width="16" height="16" transform="translate(32 465)"/><path class="f" d="M13.854,3.646a.5.5,0,0,1,0,.707h0l-7,7a.5.5,0,0,1-.707,0h0l-3.5-3.5a.5.5,0,0,1,.708-.708L6.5,10.293l6.646-6.647a.5.5,0,0,1,.707,0Z" transform="translate(32.001 465.501)"/><rect class="e" width="16" height="16" transform="translate(32 435)"/><path class="f" d="M13.854,3.646a.5.5,0,0,1,0,.707h0l-7,7a.5.5,0,0,1-.707,0h0l-3.5-3.5a.5.5,0,0,1,.708-.708L6.5,10.293l6.646-6.647a.5.5,0,0,1,.707,0Z" transform="translate(32.001 435.501)"/><text class="d" transform="translate(56 449)"><tspan x="0" y="0">현장 상황 체크리스트·추가 비용 발생 여부 확인</tspan></text><text class="d" transform="translate(56 479)"><tspan x="0" y="0">무료 방문상담 일자 조율 </tspan></text><text class="d" transform="translate(56 681)"><tspan x="0" y="0">반장님 현장 실측/상담·추가비용 발생 여부 확인</tspan></text><rect class="e" width="16" height="16" transform="translate(32 667)"/><path class="f" d="M13.854,3.646a.5.5,0,0,1,0,.707h0l-7,7a.5.5,0,0,1-.707,0h0l-3.5-3.5a.5.5,0,0,1,.708-.708L6.5,10.293l6.646-6.647a.5.5,0,0,1,.707,0Z" transform="translate(32.001 667.501)"/><rect class="e" width="16" height="16" transform="translate(32 727)"/><path class="f" d="M13.854,3.646a.5.5,0,0,1,0,.707h0l-7,7a.5.5,0,0,1-.707,0h0l-3.5-3.5a.5.5,0,0,1,.708-.708L6.5,10.293l6.646-6.647a.5.5,0,0,1,.707,0Z" transform="translate(32.001 727.501)"/><rect class="e" width="16" height="16" transform="translate(32 697)"/><path class="f" d="M13.854,3.646a.5.5,0,0,1,0,.707h0l-7,7a.5.5,0,0,1-.707,0h0l-3.5-3.5a.5.5,0,0,1,.708-.708L6.5,10.293l6.646-6.647a.5.5,0,0,1,.707,0Z" transform="translate(32.001 697.501)"/><text class="d" transform="translate(56 711)"><tspan x="0" y="0">모바일 최종 견적서 전송 </tspan></text><text class="d" transform="translate(56 741)"><tspan x="0" y="0">시공 스케줄 조율</tspan></text><text class="d" transform="translate(56 991)"><tspan x="0" y="0">시공 일자 확정</tspan></text><rect class="e" width="16" height="16" transform="translate(32 977)"/><path class="f" d="M13.854,3.646a.5.5,0,0,1,0,.707h0l-7,7a.5.5,0,0,1-.707,0h0l-3.5-3.5a.5.5,0,0,1,.708-.708L6.5,10.293l6.646-6.647a.5.5,0,0,1,.707,0Z" transform="translate(32.001 977.501)"/><rect class="e" width="16" height="16" transform="translate(32 1037)"/><path class="f" d="M13.854,3.646a.5.5,0,0,1,0,.707h0l-7,7a.5.5,0,0,1-.707,0h0l-3.5-3.5a.5.5,0,0,1,.708-.708L6.5,10.293l6.646-6.647a.5.5,0,0,1,.707,0Z" transform="translate(32.001 1037.501)"/><rect class="e" width="16" height="16" transform="translate(32 1007)"/><path class="f" d="M13.854,3.646a.5.5,0,0,1,0,.707h0l-7,7a.5.5,0,0,1-.707,0h0l-3.5-3.5a.5.5,0,0,1,.708-.708L6.5,10.293l6.646-6.647a.5.5,0,0,1,.707,0Z" transform="translate(32.001 1007.501)"/><text class="d" transform="translate(56 1021)"><tspan x="0" y="0">모바일 최종 견적서 계약</tspan></text><text class="d" transform="translate(56 1051)"><tspan x="0" y="0">계약금 결제</tspan></text><text class="d" transform="translate(56 1253)"><tspan x="0" y="0">시공 3일전 사전 안내 전화</tspan></text><rect class="e" width="16" height="16" transform="translate(32 1239)"/><path class="f" d="M13.854,3.646a.5.5,0,0,1,0,.707h0l-7,7a.5.5,0,0,1-.707,0h0l-3.5-3.5a.5.5,0,0,1,.708-.708L6.5,10.293l6.646-6.647a.5.5,0,0,1,.707,0Z" transform="translate(32.001 1239.501)"/><rect class="e" width="16" height="16" transform="translate(32 1299)"/><path class="f" d="M13.854,3.646a.5.5,0,0,1,0,.707h0l-7,7a.5.5,0,0,1-.707,0h0l-3.5-3.5a.5.5,0,0,1,.708-.708L6.5,10.293l6.646-6.647a.5.5,0,0,1,.707,0Z" transform="translate(32.001 1299.501)"/><rect class="e" width="16" height="16" transform="translate(32 1269)"/><path class="f" d="M13.854,3.646a.5.5,0,0,1,0,.707h0l-7,7a.5.5,0,0,1-.707,0h0l-3.5-3.5a.5.5,0,0,1,.708-.708L6.5,10.293l6.646-6.647a.5.5,0,0,1,.707,0Z" transform="translate(32.001 1269.501)"/><text class="d" transform="translate(56 1283)"><tspan x="0" y="0">시공 당일 직영 시공팀 도착</tspan></text><text class="d" transform="translate(56 1313)"><tspan x="0" y="0">폐기물 처리</tspan></text><text class="d" transform="translate(56 1515)"><tspan x="0" y="0">서비스 만족도 체크·공사 완료 확인서 서명</tspan></text><rect class="e" width="16" height="16" transform="translate(32 1501)"/><path class="f" d="M13.854,3.646a.5.5,0,0,1,0,.707h0l-7,7a.5.5,0,0,1-.707,0h0l-3.5-3.5a.5.5,0,0,1,.708-.708L6.5,10.293l6.646-6.647a.5.5,0,0,1,.707,0Z" transform="translate(32.001 1501.501)"/><rect class="e" width="16" height="16" transform="translate(32 1561)"/><path class="f" d="M13.854,3.646a.5.5,0,0,1,0,.707h0l-7,7a.5.5,0,0,1-.707,0h0l-3.5-3.5a.5.5,0,0,1,.708-.708L6.5,10.293l6.646-6.647a.5.5,0,0,1,.707,0Z" transform="translate(32.001 1561.501)"/><rect class="e" width="16" height="16" transform="translate(32 1531)"/><path class="f" d="M13.854,3.646a.5.5,0,0,1,0,.707h0l-7,7a.5.5,0,0,1-.707,0h0l-3.5-3.5a.5.5,0,0,1,.708-.708L6.5,10.293l6.646-6.647a.5.5,0,0,1,.707,0Z" transform="translate(32.001 1531.501)"/><text class="d" transform="translate(56 1545)"><tspan x="0" y="0">하자보증 보험 발급</tspan></text><text class="d" transform="translate(56 1575)"><tspan x="0" y="0">시공 하자 접수 시 전담팀 연락 (A/S 기간 1년)</tspan></text><path class="g" d="M2621-4694h541" transform="translate(-2589 4964)"/><path class="g" d="M2621-4694h541" transform="translate(-2589 5226)"/><path class="g" d="M2621-4694h541" transform="translate(-2589 5798)"/><path class="g" d="M2621-4694h541" transform="translate(-2589 6060)"/><rect class="h" width="541" height="48" rx="8" transform="translate(32 794)"/><text class="i" transform="translate(303 824)"><tspan x="-197.678" y="0" xml:space="preserve">상담·실측까지  </tspan><tspan class="j" y="0">100% 무료!</tspan><tspan y="0" xml:space="preserve">  시공 진행 여부는 고객님 </tspan><tspan class="j" y="0">자유</tspan><tspan y="0">입니다.</tspan></text></svg>