<svg xmlns="http://www.w3.org/2000/svg" width="600" height="315" viewBox="0 0 600 315"><defs><style>.a{fill:#091627;}.b{fill:#fff;}.c{fill:#4c64f2;}</style></defs><rect class="a" width="600" height="315"/><g transform="translate(-1100 -36.771)"><g transform="translate(1326.184 177.426)"><g transform="translate(0)"><path class="b" d="M161.145,528.006H140.828v5.054H156.3a56.674,56.674,0,0,1-.444,7.492H140.828V545.6h13.986a15.028,15.028,0,0,1-1.76,3.964c-4.543,6.844-13.005,9.718-13.005,9.718v.036l2.016,5.466c3.342-1.46,10.107-4.794,14.077-9.352,6.039-6.933,6.787-15.9,6.787-19.682v-7.748Z" transform="translate(-140.049 -528.006)"/><path class="b" d="M162.964,569.345h-6.736V547.359h-6.084V542.32h6.084V528.009h6.736Z" transform="translate(-125.944 -528.002)"/></g><g transform="translate(85.944 0)"><rect class="b" width="31.553" height="5.033" transform="translate(2.97)"/><path class="b" d="M183.756,543.025v-6.34H208.57v-5.03H178.56v.006h-1.477v16.4h31.674v-5.033Z" transform="translate(-174.247 -522.908)"/><path class="b" d="M213.259,546.324H175.9V541.3h37.359Z" transform="translate(-175.9 -509.428)"/></g><g transform="translate(128.081 0.007)"><path class="b" d="M230.836,546.324H193.477V541.3h37.359Z" transform="translate(-193.477 -509.435)"/><path class="b" d="M226.22,553.137H194.694V528.009h6.734v6.94h18.059v-6.94h6.734Zm-6.734-5.013v-8.1H201.428v8.1Z" transform="translate(-191.777 -528.009)"/></g><g transform="translate(44.762)"><path class="b" d="M171.866,553.019h6.758V528.006h-6.758v6.473h-7.839V539.5h7.839Z" transform="translate(-151.308 -528.006)"/><path class="b" d="M158.724,544.44h29.25v8.966h6.734v-13.99H158.724Z" transform="translate(-158.716 -512.062)"/><path class="b" d="M176.921,551.331l-1-5.777a61.5,61.5,0,0,1-7.631.484h-2.882V528.006h-6.688V551.96h7.549A102.428,102.428,0,0,0,176.921,551.331Z" transform="translate(-158.721 -528.006)"/></g><rect class="b" width="6.759" height="25.011" transform="translate(74.012 0)"/><rect class="b" width="6.734" height="25.011" transform="translate(74.018 0)"/><g transform="translate(170.757 0)"><path class="b" d="M211.311,539.417v5.023h29.248v8.966h6.735v-13.99Z" transform="translate(-211.235 -512.062)"/><path class="b" d="M234.753,546.529a115.666,115.666,0,0,1-15.057.661h-1.587v-4.25h14.448V528.012H211.279v5.566h14.592v4h-14.5v15.182h7.884a108,108,0,0,0,16.429-.825Z" transform="translate(-211.279 -527.998)"/><rect class="b" width="6.734" height="25.011" transform="translate(29.308)"/></g></g><g transform="translate(1243 160.77)"><path class="c" d="M115.449,546.413l7.921-6.911H131.7a6.982,6.982,0,1,0,0-6.115h-9.474a3.054,3.054,0,0,0-2.011.756l-9.831,8.579a3.052,3.052,0,0,0-1.048,2.3v19.233a3.06,3.06,0,0,0,3.056,3.057h54.169V561.2h-51.11Zm20.341-9.968a2.156,2.156,0,1,1,2.155,2.155A2.16,2.16,0,0,1,135.79,536.445Z" transform="translate(-98.218 -509.316)"/><path class="c" d="M172.024,549.6l-30.757-27.726a3.071,3.071,0,0,0-3.994-.086L105.8,547.847a3.05,3.05,0,0,0-1.107,2.359V579.09h6.116V551.65l28.326-23.458,27.784,25.047v5.838h-26.6a6.973,6.973,0,1,0-7.944,9.826,7.089,7.089,0,0,0,1.707.211,6.975,6.975,0,0,0,6.25-3.913h29.64a3.063,3.063,0,0,0,3.059-3.061V551.875A3.063,3.063,0,0,0,172.024,549.6Zm-35.853,13.043a2.156,2.156,0,1,1-2.1-2.685,2.251,2.251,0,0,1,.53.065A2.166,2.166,0,0,1,136.171,562.642Z" transform="translate(-104.697 -521.091)"/></g></g></svg>