<svg xmlns="http://www.w3.org/2000/svg" width="24" height="24" viewBox="0 0 24 24">
    <g data-name="그룹 172941">
        <path data-name="패스 38319" d="M0 0h24v24H0z" style="fill:none"/>
    </g>
    <g data-name="그룹 172943">
        <g data-name="그룹 172942">
            <path data-name="사각형 161147" transform="translate(5 15)" style="fill:#ecf6f4" d="M0 0h4v4H0z"/>
            <path data-name="사각형 161148" transform="translate(5 5)" style="fill:#ecf6f4" d="M0 0h4v4H0z"/>
            <path data-name="사각형 161149" transform="translate(15 5)" style="fill:#ecf6f4" d="M0 0h4v4H0z"/>
            <path data-name="패스 38320" d="M3 11h8V3H3zm2-6h4v4H5z" style="fill:#438277"/>
            <path data-name="패스 38321" d="M13 3v8h8V3zm6 6h-4V5h4z" style="fill:#438277"/>
            <path data-name="패스 38322" d="M3 21h8v-8H3zm2-6h4v4H5z" style="fill:#438277"/>
            <path data-name="패스 38323" d="M18 13h-2v3h-3v2h3v3h2v-3h3v-2h-3z" style="fill:#438277"/>
        </g>
    </g>
</svg>
