<svg xmlns="http://www.w3.org/2000/svg" width="24" height="24" viewBox="0 0 24 24">
    <path data-name="패스 38327" d="M0 0h24v24H0z" style="fill:none"/>
    <path data-name="패스 38328" d="M11.92 8.28A4.5 4.5 0 0 0 7.24 3l3.09 3.09-4.24 4.24L3 7.24a4.472 4.472 0 0 0 5.14 4.69 4.437 4.437 0 0 0 2-.82l9.46 9.46.88-.88-9.45-9.45a4.356 4.356 0 0 0 .89-1.96z" style="fill:#ecf6f4"/>
    <path data-name="패스 38329" d="M22.61 18.97 13.54 9.9a6.5 6.5 0 0 0-9.87-7.65L7.5 6.08 6.08 7.5 2.25 3.67a6.491 6.491 0 0 0 7.54 9.9l9.11 9.11a1 1 0 0 0 1.41 0l2.3-2.3a.978.978 0 0 0 0-1.41zm-3 1.6-9.46-9.46a4.372 4.372 0 0 1-2 .82A4.486 4.486 0 0 1 3 7.24l3.09 3.09 4.24-4.24L7.24 3a4.486 4.486 0 0 1 4.68 5.27 4.362 4.362 0 0 1-.88 1.95l9.45 9.45z" style="fill:#438277"/>
</svg>
