<svg xmlns="http://www.w3.org/2000/svg" width="106" height="16" viewBox="0 0 106 16">
    <path data-name="패스 38336" d="m-52.515-9.184-.333-.976a17.707 17.707 0 0 1 2.183-1.862 3.016 3.016 0 0 1 1.461-.669q.592 0 .592.976a19.255 19.255 0 0 1-.926 4.321l-.668 2.241q-.11.416-.331 1.365a6.943 6.943 0 0 0-.221 1.347q0 .742.481.742.832 0 2.164-1.808a21.912 21.912 0 0 0 2.266-4 13.665 13.665 0 0 0 1.175-3.534 3.653 3.653 0 0 1 .324-1.419 1.013 1.013 0 0 1 .731-.19 1.484 1.484 0 0 1 .6.081.322.322 0 0 1 .157.316 3.892 3.892 0 0 1-.2 1.139q-.314 1.031-.333 1.1l-.536 2.549q-.148.741-.277 1.953a19.07 19.07 0 0 0-.133 1.912 4.366 4.366 0 0 0 .176 1.41q.176.488.509.488.758 0 2.035-2.368A26.384 26.384 0 0 0-39.6-9.058a1.578 1.578 0 0 1-.111-.353 1.935 1.935 0 0 1-.037-.371 6.8 6.8 0 0 1 .462-2.314.81.81 0 0 1 .324-.461 2.325 2.325 0 0 1 .786-.081.473.473 0 0 1 .361.1.724.724 0 0 1 .083.425 9.956 9.956 0 0 1-.668 3.074q.166.2.314.362.259.271.629.6l-.573.832a2 2 0 0 1-.425-.307q-.2-.253-.351-.416l-.24.633q-.684 1.79-1.2 2.893a15.172 15.172 0 0 1-1.72 2.925 2.887 2.887 0 0 1-2.077 1.3q-1.054 0-1.517-1.32a6.735 6.735 0 0 1-.3-2.151q0-.615.018-.85t.074-.759a22.842 22.842 0 0 1-1.165 1.989 11.276 11.276 0 0 1-1.72 2.115 3.126 3.126 0 0 1-2.035.976 1.352 1.352 0 0 1-1.128-.6 2.507 2.507 0 0 1-.444-1.537 8.591 8.591 0 0 1 .407-2.441l1.353-4.66a3.525 3.525 0 0 0 .185-1.012.383.383 0 0 0-.074-.217 2.014 2.014 0 0 0-.657.353 13.893 13.893 0 0 0-1.175.895zm23.677 5.514v1.537A7.759 7.759 0 0 1-30.549-.7a3.142 3.142 0 0 1-1.563.524 1.166 1.166 0 0 1-.925-.47 1.756 1.756 0 0 1-.388-1.157 6.307 6.307 0 0 1 .5-2.043 6.328 6.328 0 0 0 .5-1.844q0-.38-.314-.38a2.643 2.643 0 0 0-1.406.687 14.524 14.524 0 0 0-2 1.971q-.055.47-.074.741t-.018.777l.055 1.645h-1.443q-.018-.108-.12-1.256t-.1-1.2a16.426 16.426 0 0 1 .536-3.652 17.062 17.062 0 0 1 1.535-4.249q1.11-2.043 2.368-2.043a1.22 1.22 0 0 1 1 .488 1.941 1.941 0 0 1 .388 1.247A7.593 7.593 0 0 1-34-6.581a9.74 9.74 0 0 1 1.23-.678 1.984 1.984 0 0 1 .749-.154.894.894 0 0 1 .777.4 1.978 1.978 0 0 1 .277 1.139 6.509 6.509 0 0 1-.481 2.043 6.471 6.471 0 0 0-.481 1.971q0 .4.3.4.886-.004 2.791-2.21zm-4.328-7.123q0-.669-.37-.669-.61 0-1.434 2.179a18.848 18.848 0 0 0-1.082 4.059 23.061 23.061 0 0 0 2.2-3.263 5.125 5.125 0 0 0 .686-2.306zm12.857 7.123v1.529q-2.146 1.924-3.367 1.924a.761.761 0 0 1-.768-.42 2.349 2.349 0 0 1-.194-.993v-.3a8.7 8.7 0 0 1-1.47 1.33 2.083 2.083 0 0 1-1.138.38A1.826 1.826 0 0 1-28.7-.985a2.806 2.806 0 0 1-.62-1.817 4.948 4.948 0 0 1 1.26-3.381A3.37 3.37 0 0 1-25.526-7.5a1.926 1.926 0 0 1 1.008.271 2.864 2.864 0 0 1 .86.868l.314-1.139h1.535l-.962 3.815a9.651 9.651 0 0 0-.222.959 4.738 4.738 0 0 0-.092.708q0 .34.222.34a2.049 2.049 0 0 0 .971-.529 16.469 16.469 0 0 0 1.583-1.463zm-4.025.219.418-1.81a9.2 9.2 0 0 0-.832-.886 1 1 0 0 0-.629-.235 2 2 0 0 0-1.6.985 3.689 3.689 0 0 0-.712 2.215 2.634 2.634 0 0 0 .26 1.256.774.774 0 0 0 .686.479 2.118 2.118 0 0 0 1.335-.795q.536-.595 1.074-1.209zm4.692-3.816 1.371-4.032h1.556l-1.3 3.891 1.7-.005-.222 1.049h-1.887l-.092.31q-.259.929-.388 1.649a7.258 7.258 0 0 0-.129 1.266q0 1.567.555 1.567a2.284 2.284 0 0 0 1-.474 12.56 12.56 0 0 0 1.905-1.641v1.545a9.413 9.413 0 0 1-2.275 1.6 3.12 3.12 0 0 1-1.277.342 1.256 1.256 0 0 1-1.119-.718 3.773 3.773 0 0 1-.416-1.9 7.176 7.176 0 0 1 .092-1.255q.092-.509.444-1.746l.148-.545-.573.09.074-.7q.018-.139.268-.191t.564-.103zM1.668-3.67v1.529Q-.478-.217-1.7-.217a.761.761 0 0 1-.768-.42 2.349 2.349 0 0 1-.194-.993v-.3A8.7 8.7 0 0 1-4.131-.6a2.083 2.083 0 0 1-1.138.38 1.826 1.826 0 0 1-1.452-.765A2.806 2.806 0 0 1-7.34-2.8a4.948 4.948 0 0 1 1.257-3.383A3.37 3.37 0 0 1-3.548-7.5a1.926 1.926 0 0 1 1.008.271 2.864 2.864 0 0 1 .86.868l.314-1.139H.17l-.962 3.812a9.651 9.651 0 0 0-.222.959 4.738 4.738 0 0 0-.092.708q0 .34.222.34a2.049 2.049 0 0 0 .97-.529 16.469 16.469 0 0 0 1.582-1.46zm-4.025.219.418-1.81a9.2 9.2 0 0 0-.832-.886 1 1 0 0 0-.629-.235A2 2 0 0 0-5-5.4a3.689 3.689 0 0 0-.712 2.215 2.634 2.634 0 0 0 .26 1.256.774.774 0 0 0 .686.479 2.118 2.118 0 0 0 1.335-.795q.536-.592 1.074-1.206zM9.586-2.079v-1.5a26.971 26.971 0 0 0 4-5.478h1.295L13.9-5.026l.222-.289a8.269 8.269 0 0 1 1.526-1.69 2.25 2.25 0 0 1 1.378-.5 1.432 1.432 0 0 1 1.175.569 2.324 2.324 0 0 1 .453 1.492 5.967 5.967 0 0 1-1.628 4.1 2.525 2.525 0 0 0 1.461-.524 13.438 13.438 0 0 0 1.2-1.067q.166-.181.388-.452.074-.09.222-.289v1.537q-1.24 1.127-1.425 1.253a3 3 0 0 1-1.739.6 3.7 3.7 0 0 1-1.091-.217 2.3 2.3 0 0 1-1.2.289q-.943 0-.943-.56a1.854 1.854 0 0 1 .176-.8.587.587 0 0 1 .564-.371 2.041 2.041 0 0 1 .555.09q.092.018.592.2a3.8 3.8 0 0 0 .943-1.428 5.721 5.721 0 0 0 .425-2.133q0-1.139-.555-1.139a1.689 1.689 0 0 0-1.054.588 9.819 9.819 0 0 0-1.313 1.654 13.46 13.46 0 0 0-1.51 3.553q-.6 2.133-.971 3.4a.639.639 0 0 1-.7.47q-.962 0-.962-.687v-.164a1.563 1.563 0 0 1 .111-.506q0-.018.314-.777.758-1.79 1.387-3.7t1.128-3.932A24.631 24.631 0 0 1 11.334-3.9a13.178 13.178 0 0 1-1.748 1.821zM26.161-3.67v1.537A12.56 12.56 0 0 1 23.7-.624a5.151 5.151 0 0 1-2.035.443 1.568 1.568 0 0 1-1.461-.8 3.368 3.368 0 0 1-.388-1.736 16.661 16.661 0 0 1 .962-4.863A12.3 12.3 0 0 1 23-12.041a1.959 1.959 0 0 1 1.332-.633 1.123 1.123 0 0 1 .906.461 1.776 1.776 0 0 1 .37 1.148 5.362 5.362 0 0 1-.61 2.3 15.425 15.425 0 0 1-1.554 2.477q-.74 1.012-2 2.477l-.092 1.1q0 1.3.869 1.3a4.074 4.074 0 0 0 1.868-.633 8.753 8.753 0 0 0 2.072-1.626zM21.7-5.586q1.036-1.428 1.424-2.025a12.881 12.881 0 0 0 1.008-1.781 3.515 3.515 0 0 0 .342-1.419q0-.615-.333-.615-.61 0-1.517 2.6a26.572 26.572 0 0 0-.924 3.24zM34.689-3.67v1.529Q32.543-.217 31.322-.217a.761.761 0 0 1-.768-.42 2.349 2.349 0 0 1-.194-.993v-.3A8.7 8.7 0 0 1 28.89-.6a2.083 2.083 0 0 1-1.138.38A1.826 1.826 0 0 1 26.3-.985a2.806 2.806 0 0 1-.62-1.817 4.948 4.948 0 0 1 1.258-3.381A3.37 3.37 0 0 1 29.473-7.5a1.926 1.926 0 0 1 1.008.271 2.864 2.864 0 0 1 .86.868l.314-1.139h1.535l-.962 3.815a9.652 9.652 0 0 0-.222.959 4.738 4.738 0 0 0-.092.708q0 .34.222.34a2.049 2.049 0 0 0 .971-.529 16.469 16.469 0 0 0 1.582-1.463zm-4.025.219.418-1.81a9.2 9.2 0 0 0-.832-.886 1 1 0 0 0-.629-.235 2 2 0 0 0-1.6.985 3.689 3.689 0 0 0-.712 2.215 2.634 2.634 0 0 0 .26 1.256.774.774 0 0 0 .686.479 2.118 2.118 0 0 0 1.335-.795q.536-.595 1.074-1.209zM41.4-3.67v1.537a7.91 7.91 0 0 1-2.188 1.491 5.666 5.666 0 0 1-2.284.479 2.563 2.563 0 0 1-2.275-.994 2.791 2.791 0 0 1-.462-1.627 4.914 4.914 0 0 1 1.221-3.254 3.546 3.546 0 0 1 2.738-1.446 1.789 1.789 0 0 1 1.2.38 1.327 1.327 0 0 1 .45 1.066 2.505 2.505 0 0 1-.277 1.157 2.226 2.226 0 0 1-.777.868 4.579 4.579 0 0 1-.555-.28 1.549 1.549 0 0 1-.407-.371 8.392 8.392 0 0 0 .573-.823.927.927 0 0 0 .111-.443q0-.47-.518-.47-.74 0-1.471 1.211a4.549 4.549 0 0 0-.731 2.35 1.509 1.509 0 0 0 .407 1.1 1.41 1.41 0 0 0 1.054.416 4.252 4.252 0 0 0 2.035-.588A8.79 8.79 0 0 0 41.4-3.67zm7.011 0v1.519a9.643 9.643 0 0 1-5.526 2.006A1.663 1.663 0 0 1 41.4-.931a3.207 3.207 0 0 1-.509-1.781 5.5 5.5 0 0 1 1.2-3.5 3.484 3.484 0 0 1 2.775-1.528q1.48 0 1.48 1.374a2.631 2.631 0 0 1-1.295 2.151 11.3 11.3 0 0 1-2.22 1.1l-.388.163v.072a2.1 2.1 0 0 0 .2.994.993.993 0 0 0 .943.56 5.065 5.065 0 0 0 2.238-.551 12.925 12.925 0 0 0 2.592-1.793zm-5.79-.47a6.383 6.383 0 0 0 1.831-.967 1.492 1.492 0 0 0 .69-1.093q0-.4-.425-.4a1.718 1.718 0 0 0-1.239.732 3.911 3.911 0 0 0-.852 1.728zm6.956 1.681q.536 0 .536.362a4.522 4.522 0 0 1-.351 1.428.959.959 0 0 1-.268.407.8.8 0 0 1-.453.1 5.062 5.062 0 0 1-.708-.038Q48.1-.235 48.1-.578a4.045 4.045 0 0 1 .111-.832 2.933 2.933 0 0 1 .24-.741.471.471 0 0 1 .324-.235 3.187 3.187 0 0 1 .807-.073zm1.091-2.495h-.925a9.157 9.157 0 0 1 .259-1.934q.018-.054.7-2.82l.277-1.356a8.619 8.619 0 0 1 .277-1.121 1.828 1.828 0 0 1 .768-.262 5.394 5.394 0 0 1 .934-.154.162.162 0 0 1 .185.181 5.373 5.373 0 0 1-.351 1.446q-.092.271-.851 2.278l-.277.705Q51.21-6.761 51-6.129a10.014 10.014 0 0 0-.327 1.175z" transform="translate(52.848 12.691)" style="fill:#a8a8a8"/>
</svg>
