<svg xmlns="http://www.w3.org/2000/svg" width="48" height="48" viewBox="0 0 48 48"><defs><style>.a{fill:red;opacity:0;}.b,.d,.f{fill:none;}.b,.d{stroke:#9a9a9a;stroke-linejoin:round;stroke-width:2px;}.c{opacity:0.5;}.d{stroke-linecap:round;}.e{stroke:none;}</style></defs><rect class="a" width="48" height="48"/><g class="b" transform="translate(2 2)"><rect class="e" width="44" height="44" rx="2"/><rect class="f" x="1" y="1" width="42" height="42" rx="1"/></g><g class="c" transform="translate(-282 -506)"><path class="d" d="M301,523v-1.574A6.426,6.426,0,0,1,307.426,515h3.148A6.426,6.426,0,0,1,317,521.426V543"/><path class="d" d="M294,531a7,7,0,1,1,14,0Z"/><line class="d" y2="8" transform="translate(303 535)"/><line class="d" y2="8" transform="translate(307 535)"/><line class="d" y2="8" transform="translate(295 535)"/><line class="d" y2="8" transform="translate(299 535)"/></g><line class="d" x2="40" y2="40" transform="translate(4 4)"/><line class="d" x1="40" y2="40" transform="translate(4 4)"/></svg>