<svg xmlns="http://www.w3.org/2000/svg" width="24" height="24" viewBox="0 0 24 24"><defs><style>.a{fill:red;opacity:0;}.b,.d,.e,.g{fill:none;}.b,.e{stroke:#8998a5;}.b,.d,.e{stroke-linejoin:round;}.c{opacity:0.5;}.d{stroke:#8b97a3;}.d,.e{stroke-linecap:round;}.f{stroke:none;}</style></defs><rect class="a" width="24" height="24"/><g class="b" transform="translate(1 1)"><rect class="f" width="22" height="22" rx="2"/><rect class="g" x="0.5" y="0.5" width="21" height="21" rx="1.5"/></g><g class="c" transform="translate(-103 -233)"><path class="d" d="M120.5,246.5v-2a1,1,0,0,1,1-1h0a1,1,0,0,1,1,1v4a1,1,0,0,1-1,1h-13a1,1,0,0,1-1-1v-4a1,1,0,0,1,1-1h0a1,1,0,0,1,1,1v2Z"/><rect class="d" width="11" height="7" rx="1" transform="translate(109.5 239.5)"/><line class="d" x1="0.006" y2="2" transform="translate(110.494 249.5)"/><line class="d" x1="0.006" y2="2" transform="translate(119.494 249.5)"/></g><line class="b" x2="20" transform="translate(2 11.5)"/><line class="e" x2="20" y2="10" transform="translate(1.5 11.5)"/><line class="e" x1="20" y2="10" transform="translate(2.5 11.5)"/></svg>