<svg xmlns="http://www.w3.org/2000/svg" width="24" height="24" viewBox="0 0 24 24"><defs><style>.a{fill:red;opacity:0;}.b,.e,.f,.h{fill:none;}.b{stroke:#8998a5;stroke-linejoin:round;}.c{opacity:0.5;}.d{fill:#8b97a3;}.d,.e{fill-rule:evenodd;}.e,.f{stroke-miterlimit:10;}.f{stroke:#8b97a3;}.g,.i{stroke:none;}.i{fill:#8b97a3;}</style></defs><rect class="a" width="24" height="24"/><g class="b"><circle class="g" cx="12" cy="12" r="12"/><circle class="h" cx="12" cy="12" r="11.5"/></g><g class="c" transform="translate(-19 -233)"><path class="d" d="M30.794,251.73c-5.819-.6-5.227-5.409-5.227-5.409a7,7,0,0,0,5.52.539,11.039,11.039,0,0,1,5.52-.539C36.457,251.848,30.794,251.73,30.794,251.73Z"/><g class="e"><path class="g" d="M30.212,237.748c.48-.472.789-.748.789-.748a9.706,9.706,0,0,0,.37.969,15.061,15.061,0,0,0,3.2,4.3c1.31,1.362,2.432,2.528,2.432,4.073.042,3.856-4.1,6.841-8.471,5.2A5.44,5.44,0,0,1,25,246.447v-.108C25,243.231,28.581,239.353,30.212,237.748Z"/><path class="i" d="M 30.63847732543945 238.7344055175781 C 27.72877883911133 241.6639404296875 26.00119400024414 244.489990234375 26 246.3390045166016 L 26 246.4470062255859 C 26 248.2882995605469 27.15723037719727 249.9586639404297 28.87994003295898 250.6035919189453 C 29.58127975463867 250.8664398193359 30.29426002502441 250.9997100830078 30.99905967712402 250.9997100830078 C 32.40327072143555 250.9997100830078 33.75123977661133 250.4511566162109 34.69734191894531 249.4946899414062 C 35.55010986328125 248.6325836181641 36.01276016235352 247.5157470703125 36.00006103515625 246.3498992919922 L 36 246.3444519042969 L 36 246.3390045166016 C 36 245.2029113769531 35.05963897705078 244.2197418212891 33.86455154418945 242.9771881103516 C 32.54584503173828 241.7341613769531 31.46186828613281 240.3083190917969 30.63847732543945 238.7344055175781 M 31.00099945068359 237 C 31.10700035095215 237.3289947509766 31.22999954223633 237.6519927978516 31.37100028991699 237.968994140625 C 32.15999984741211 239.5650024414062 33.24099731445312 241.0189971923828 34.56800079345703 242.2660064697266 C 35.87799835205078 243.6280059814453 37 244.7940063476562 37 246.3390045166016 C 37.03392028808594 249.4534149169922 34.34150695800781 251.9997253417969 30.99905967712402 251.9997253417969 C 30.20316696166992 251.9997253417969 29.37060165405273 251.8554077148438 28.52899932861328 251.5399932861328 C 26.34400177001953 250.7220001220703 25 248.6450042724609 25 246.4470062255859 L 25 246.3390045166016 C 25.00199890136719 243.2310028076172 28.58100128173828 239.3529968261719 30.21199989318848 237.7480010986328 C 30.6919994354248 237.2760009765625 31.00099945068359 237 31.00099945068359 237 Z"/></g><path class="f" d="M30.087,241.162a7.557,7.557,0,0,0-1.889,2.705"/></g><line class="b" x2="16" y2="16" transform="translate(4 4)"/><line class="b" x2="16" y2="16" transform="translate(4 4)"/></svg>