<svg xmlns="http://www.w3.org/2000/svg" width="48" height="48" viewBox="0 0 48 48"><defs><style>.a{fill:red;opacity:0;}.b,.c,.e{fill:none;}.b,.c{stroke:#9a9a9a;stroke-linejoin:round;stroke-width:2px;}.c{stroke-linecap:round;}.d{stroke:none;}</style></defs><rect class="a" width="48" height="48"/><g class="b" transform="translate(2 2)"><rect class="d" width="44" height="44" rx="2"/><rect class="e" x="1" y="1" width="42" height="42" rx="1"/></g><g transform="translate(-177 -348)"><path class="c" d="M212,375v-4a2,2,0,0,1,2-2h0a2,2,0,0,1,2,2v8a2,2,0,0,1-2,2H188a2,2,0,0,1-2-2v-8a2,2,0,0,1,2-2h0a2,2,0,0,1,2,2v4Z"/><rect class="c" width="22" height="14" rx="1" transform="translate(190 361)"/><line class="c" x1="0.013" y2="4" transform="translate(191.987 381)"/><line class="c" x1="0.013" y2="4" transform="translate(209.987 381)"/></g></svg>