<svg xmlns="http://www.w3.org/2000/svg" width="48" height="48" viewBox="0 0 48 48"><defs><style>.a{fill:red;opacity:0;}.b,.d,.e,.g{fill:none;}.b,.d,.e{stroke:#9a9a9a;stroke-width:2px;}.b,.d{stroke-linejoin:round;}.c{opacity:0.5;}.d{stroke-linecap:round;}.e{stroke-miterlimit:10;}.f{stroke:none;}</style></defs><rect class="a" width="48" height="48"/><g class="b" transform="translate(2 2)"><rect class="f" width="44" height="44" rx="2"/><rect class="g" x="1" y="1" width="42" height="42" rx="1"/></g><g class="c" transform="translate(-282 -400)"><path class="d" d="M301,417v-1.574A6.426,6.426,0,0,1,307.426,409h3.148A6.426,6.426,0,0,1,317,415.426V437"/><path class="d" d="M294,425a7,7,0,1,1,14,0Z"/><line class="d" y2="8" transform="translate(303 429)"/><line class="d" y2="8" transform="translate(307 429)"/><line class="d" y2="8" transform="translate(295 429)"/><line class="d" y2="8" transform="translate(299 429)"/></g><line class="e" x2="40" transform="translate(4 24)"/><line class="d" x2="42" y2="20" transform="translate(3 24)"/><line class="d" x1="42" y2="20" transform="translate(3 24)"/></svg>