<svg xmlns="http://www.w3.org/2000/svg" width="24" height="24" viewBox="0 0 24 24"><defs><style>.a{fill:red;opacity:0;}.b,.e,.f,.h{fill:none;}.b{stroke:#8998a5;}.b,.e,.f{stroke-linejoin:round;}.c{fill:rgba(230,51,35,0);}.d{fill:#8b97a3;}.d,.e{fill-rule:evenodd;}.e{stroke-linecap:round;}.f{stroke:#8b97a3;}.g,.i{stroke:none;}.i{fill:#8b97a3;}</style></defs><rect class="a" width="24" height="24"/><g class="b"><circle class="g" cx="12" cy="12" r="12"/><circle class="h" cx="12" cy="12" r="11.5"/></g><rect class="c" width="15" height="15" transform="translate(4.958 5.154)"/><g transform="translate(-19 -200)"><path class="d" d="M30.794,218.73c-5.819-.6-5.227-5.409-5.227-5.409a7,7,0,0,0,5.52.539,11.039,11.039,0,0,1,5.52-.539C36.457,218.848,30.794,218.73,30.794,218.73Z"/><g class="e"><path class="g" d="M31.371,204.969a15.061,15.061,0,0,0,3.2,4.3c1.31,1.362,2.432,2.528,2.432,4.073.042,3.856-4.1,6.841-8.471,5.2A5.44,5.44,0,0,1,25,213.447v-.108c0-3.108,3.581-6.986,5.212-8.591.48-.472.789-.748.789-.748Z"/><path class="i" d="M 30.63847732543945 205.7344055175781 C 27.72877883911133 208.6639404296875 26.00119400024414 211.489990234375 26 213.3390045166016 L 26 213.4470062255859 C 26 215.2882995605469 27.15723037719727 216.9586639404297 28.87994003295898 217.6035919189453 C 29.58127975463867 217.8664398193359 30.29426002502441 217.9997100830078 30.99905967712402 217.9997100830078 C 32.40327072143555 217.9997100830078 33.75123977661133 217.4511566162109 34.69734191894531 216.4946899414062 C 35.55010986328125 215.6325836181641 36.01276016235352 214.5157470703125 36.00006103515625 213.3498992919922 C 36.00001907348633 213.3462677001953 36 213.3426361083984 36 213.3390045166016 C 36 212.2029113769531 35.05963897705078 211.2197418212891 33.86455154418945 209.9771881103516 C 32.54584503173828 208.7341613769531 31.46186828613281 207.3083190917969 30.63847732543945 205.7344055175781 M 31.00099945068359 204 L 31.37100028991699 204.968994140625 C 32.15999984741211 206.5650024414062 33.24099731445312 208.0189971923828 34.56800079345703 209.2660064697266 C 35.87799835205078 210.6280059814453 37 211.7940063476562 37 213.3390045166016 C 37.03392028808594 216.4534149169922 34.34150695800781 218.9997253417969 30.99905967712402 218.9997253417969 C 30.20316696166992 218.9997253417969 29.37060165405273 218.8554077148438 28.52899932861328 218.5399932861328 C 26.34400177001953 217.7220001220703 25 215.6450042724609 25 213.4470062255859 L 25 213.3390045166016 C 25.00199890136719 210.2310028076172 28.58100128173828 206.3529968261719 30.21199989318848 204.7480010986328 C 30.6919994354248 204.2760009765625 31.00099945068359 204 31.00099945068359 204 Z"/></g><path class="f" d="M30.087,208.162a7.557,7.557,0,0,0-1.889,2.705"/></g></svg>