<svg xmlns="http://www.w3.org/2000/svg" width="24" height="24" viewBox="0 0 24 24"><defs><style>.a{fill:red;opacity:0;}.b,.d,.f{fill:none;}.b,.d{stroke:#8998a5;stroke-linejoin:round;}.c{opacity:0.5;}.d{stroke-linecap:round;}.e{stroke:none;}</style></defs><rect class="a" width="24" height="24"/><g class="b" transform="translate(1 1)"><rect class="e" width="22" height="22" rx="2"/><rect class="f" x="0.5" y="0.5" width="21" height="21" rx="1.5"/></g><g class="c" transform="translate(-159 -265)"><path class="d" d="M168.5,273.5v-.787a3.212,3.212,0,0,1,3.213-3.213h1.574a3.212,3.212,0,0,1,3.213,3.213V283.5"/><path class="d" d="M165,277.5a3.5,3.5,0,0,1,7,0Z"/><line class="d" y2="4" transform="translate(165.5 279.5)"/><line class="d" y2="4" transform="translate(167.5 279.5)"/><line class="d" y2="4" transform="translate(169.5 279.5)"/><line class="d" y2="4" transform="translate(171.5 279.5)"/></g><line class="b" x2="20" transform="translate(2 9.5)"/><line class="d" x2="20" y2="7" transform="translate(2.5 2.5)"/><line class="d" x1="20" y2="7" transform="translate(1.5 2.5)"/></svg>