<svg xmlns="http://www.w3.org/2000/svg" width="48" height="48" viewBox="0 0 48 48"><defs><style>.a{fill:red;opacity:0;}.b,.d,.e,.g{fill:none;}.b,.d,.e{stroke:#9a9a9a;stroke-width:2px;}.b,.d{stroke-linejoin:round;}.c{opacity:0.5;}.d{stroke-linecap:round;}.e{stroke-miterlimit:10;}.f{stroke:none;}</style></defs><rect class="a" width="48" height="48"/><g class="b" transform="translate(2 2)"><rect class="f" width="44" height="44" rx="2"/><rect class="g" x="1" y="1" width="42" height="42" rx="1"/></g><g class="c" transform="translate(-177 -453)"><path class="d" d="M212,480v-4a2,2,0,0,1,2-2h0a2,2,0,0,1,2,2v8a2,2,0,0,1-2,2H188a2,2,0,0,1-2-2v-8a2,2,0,0,1,2-2h0a2,2,0,0,1,2,2v4Z"/><rect class="d" width="22" height="14" rx="1" transform="translate(190 466)"/><line class="d" x1="0.013" y2="4" transform="translate(191.987 486)"/><line class="d" x1="0.013" y2="4" transform="translate(209.987 486)"/></g><line class="e" x2="40" transform="translate(4 24)"/><line class="d" x2="42" y2="20" transform="translate(3 4)"/><line class="d" x1="42" y2="20" transform="translate(3 4)"/></svg>