<svg xmlns="http://www.w3.org/2000/svg" width="48" height="48" viewBox="0 0 48 48"><defs><style>.a{fill:red;opacity:0.001;}.b,.d,.f{fill:none;}.b,.d{stroke:#9a9a9a;stroke-linejoin:round;stroke-width:2px;}.c{opacity:0.5;}.d{stroke-linecap:round;}.e{stroke:none;}</style></defs><rect class="a" width="48" height="48"/><g class="b" transform="translate(2 2)"><rect class="e" width="44" height="44" rx="2"/><rect class="f" x="1" y="1" width="42" height="42" rx="1"/></g><g class="c" transform="translate(-177 -506)"><path class="d" d="M212,533v-4a2,2,0,0,1,2-2h0a2,2,0,0,1,2,2v8a2,2,0,0,1-2,2H188a2,2,0,0,1-2-2v-8a2,2,0,0,1,2-2h0a2,2,0,0,1,2,2v4Z"/><rect class="d" width="22" height="14" rx="1" transform="translate(190 519)"/><line class="d" x1="0.013" y2="4" transform="translate(191.987 539)"/><line class="d" x1="0.013" y2="4" transform="translate(209.987 539)"/></g><line class="d" x2="40" y2="40" transform="translate(4 4)"/><line class="d" x1="40" y2="40" transform="translate(4 4)"/></svg>