<svg xmlns="http://www.w3.org/2000/svg" width="62" height="52" viewBox="0 0 62 52"><defs><style>.a{fill:red;opacity:0;}.b{fill:#4c64f2;}</style></defs><rect class="a" width="62" height="52"/><g transform="translate(1 1)"><path class="b" d="M3.954,28.5C2.4,3.475,26.6,4.077,26.206,17.767c-.189,6.814-5.684,9.228-5.641,12.6.073,4.77,3.065,7.664,3.546,11.077s-.141,6.238-1.519,7.293A5.749,5.749,0,0,1,19.025,50C12.107,50,4.516,37.5,3.954,28.5ZM.46,12.262C2.2,9.969,5.8,13.438,4.066,15.739a1.73,1.73,0,0,1-1.411.75C.952,16.489-.874,14.025.46,12.262ZM4.989,5.871C7.675,4.674,9.5,10.2,6.791,11.4a1.852,1.852,0,0,1-.757.169C3.788,11.566,2.558,6.958,4.989,5.871ZM23.738,8.722c-4.189-.342-3.422-9.066.773-8.711,4.1.336,3.462,8.721-.528,8.721C23.9,8.732,23.821,8.728,23.738,8.722ZM10.787,2.19c2.847-.381,3.318,5.538.447,5.909a1.838,1.838,0,0,1-.246.016C8.352,8.115,8.021,2.539,10.787,2.19Zm5.8-1.557c2.842-.368,3.314,5.55.447,5.905a1.958,1.958,0,0,1-.254.016C14.173,6.555,13.807,1,16.591.633Z" transform="translate(0 0)"/><path class="b" d="M4.7,48.735c-1.379-1.055-2-3.889-1.52-7.293s3.473-6.307,3.546-11.077c.043-3.371-5.452-5.784-5.641-12.6C.7,4.077,24.9,3.475,23.341,28.5,22.779,37.494,15.188,50,8.269,50A5.755,5.755,0,0,1,4.7,48.735Zm18.526-33c-1.73-2.3,1.863-5.77,3.6-3.477,1.335,1.764-.492,4.227-2.194,4.227A1.728,1.728,0,0,1,23.23,15.739ZM20.5,11.4c-2.7-1.2-.885-6.722,1.807-5.525,2.43,1.087,1.2,5.7-1.05,5.694A1.855,1.855,0,0,1,20.5,11.4ZM2.785.011c4.193-.355,4.962,8.369.773,8.711-.083.006-.164.01-.245.01C-.677,8.732-1.314.346,2.785.011ZM16.061,8.1c-2.872-.371-2.4-6.289.447-5.909,2.767.349,2.435,5.925-.2,5.925A1.85,1.85,0,0,1,16.061,8.1Zm-5.8-1.56C7.39,6.184,7.862.265,10.7.633c2.784.365,2.418,5.922-.193,5.922A1.967,1.967,0,0,1,10.257,6.539Z" transform="translate(32.705 0)"/></g></svg>