<svg xmlns="http://www.w3.org/2000/svg" width="42.275" height="40" viewBox="0 0 42.275 40"><defs><style>.a{opacity:0.4;}.b{fill:red;opacity:0;}.c{opacity:0.5;}.d{fill:none;stroke:#4c64f2;stroke-width:1.5px;}.d,.h{stroke-miterlimit:10;}.e,.h{fill:#4c64f2;}.e,.f,.g{fill-rule:evenodd;}.f{fill:#f7fafd;}.g{fill:#fff;}.h{stroke:#f7fafd;}</style></defs><g transform="translate(0.707)"><g class="a" transform="translate(-1410.432 -826)"><rect class="b" width="40" height="40" transform="translate(1412 826)"/><g transform="translate(1043.324 473.141)"><g class="c"><path class="d" d="M383.334,364.53l2.883,1.056a3.2,3.2,0,0,0,2.372,0l1.643-.656a3.273,3.273,0,0,1,2.442,0l1.645.657a3.2,3.2,0,0,0,2.372,0l1.643-.656a3.258,3.258,0,0,1,2.44,0l1.646.657a3.233,3.233,0,0,0,1.187.228,3.192,3.192,0,0,0,1.186-.229l2.847-1.136" transform="translate(0 -0.092)"/><path class="d" d="M383.334,369.185l2.883,1.056a3.2,3.2,0,0,0,2.372,0l1.643-.656a3.273,3.273,0,0,1,2.442,0l1.645.657a3.2,3.2,0,0,0,2.372,0l1.643-.656a3.258,3.258,0,0,1,2.44,0l1.646.657a3.195,3.195,0,0,0,2.373,0l2.847-1.136" transform="translate(0 0.253)"/><path class="d" d="M383.334,373.84l2.883,1.057a3.218,3.218,0,0,0,2.372,0l1.643-.657a3.273,3.273,0,0,1,2.442,0l1.645.659a3.218,3.218,0,0,0,2.372,0l1.643-.657a3.268,3.268,0,0,1,2.44,0l1.646.659a3.208,3.208,0,0,0,2.373,0l2.847-1.138" transform="translate(0 0.597)"/><path class="d" d="M383.334,378.5l2.883,1.056a3.218,3.218,0,0,0,2.372,0l1.643-.657a3.273,3.273,0,0,1,2.442,0l1.645.659a3.218,3.218,0,0,0,2.372,0l1.643-.657a3.268,3.268,0,0,1,2.44,0l1.646.659a3.208,3.208,0,0,0,2.373,0l2.847-1.138" transform="translate(0 0.942)"/></g><g transform="translate(-1)"><g transform="translate(369.731 355.486)"><path class="e" d="M380.922,385.013a10.7,10.7,0,0,1-10.691-10.693c0-2.553,1.165-5.617,3.465-9.111a51.273,51.273,0,0,1,5.509-6.843c.813-.856,1.335-1.353,1.357-1.374l.615-.585.245.814a18,18,0,0,0,.611,1.708,26.9,26.9,0,0,0,5.325,7.648c2.284,2.542,4.257,4.738,4.257,7.743A10.705,10.705,0,0,1,380.922,385.013Z" transform="translate(-369.709 -355.445)"/><path class="f" d="M380.945,357.414s-.526.5-1.339,1.355c-2.763,2.91-8.831,9.946-8.831,15.593a10.17,10.17,0,1,0,20.339,0c0-2.8-1.9-4.921-4.122-7.393a27.272,27.272,0,0,1-5.419-7.8,18.381,18.381,0,0,1-.629-1.759m.511-1.928.489,1.627a17.513,17.513,0,0,0,.594,1.658,26.471,26.471,0,0,0,5.231,7.5c2.258,2.513,4.391,4.886,4.391,8.092a11.214,11.214,0,1,1-22.429,0c0-2.656,1.194-5.818,3.551-9.4a51.941,51.941,0,0,1,5.566-6.915c.822-.865,1.354-1.372,1.377-1.393Z" transform="translate(-369.731 -355.486)"/></g><path class="g" d="M380.189,360.283h0q-1.633,1.768-3.1,3.677a32.482,32.482,0,0,0-3.322,5.2,11.71,11.71,0,0,0-1.414,4.983" transform="translate(0.118 0.215)"/><g transform="translate(370.774 357.411)"><path class="e" d="M379.563,358.686c.813-.856,1.339-1.358,1.339-1.358a18.147,18.147,0,0,0,.627,1.759,27.271,27.271,0,0,0,5.419,7.8c2.22,2.471,4.122,4.588,4.122,7.393a10.17,10.17,0,0,1-20.339.206c0-.069,0-.137,0-.206C370.731,368.633,376.8,361.6,379.563,358.686Zm.7,1.73q-1.633,1.768-3.1,3.677a32.48,32.48,0,0,0-3.322,5.2,11.724,11.724,0,0,0-1.414,4.983s4.237,2.542,8.474.847a16.575,16.575,0,0,1,8.475-.847c0-2.035-1.35-3.657-3.7-6.269l-.051-.054a29.984,29.984,0,0,1-5.366-7.539Z" transform="translate(-370.729 -357.328)"/></g><g transform="translate(372.471 360.499)"><path class="f" d="M380.189,360.284q-1.633,1.768-3.1,3.677a32.482,32.482,0,0,0-3.322,5.2,11.71,11.71,0,0,0-1.414,4.983s4.237,2.542,8.474.847a16.575,16.575,0,0,1,8.475-.847c0-2.035-1.35-3.657-3.7-6.269l-.051-.054a29.983,29.983,0,0,1-5.366-7.539Z" transform="translate(-372.353 -360.284)"/></g><path class="d" d="M378.973,365.52a13.966,13.966,0,0,0-3.472,5" transform="translate(0.259 0.451)"/></g></g><rect class="h" width="33.88" height="3.839" transform="translate(1410.432 856.004) rotate(-45)"/></g></g></svg>