<svg xmlns="http://www.w3.org/2000/svg" width="62" height="52" viewBox="0 0 62 52"><defs><style>.a{fill:red;opacity:0;}.b{fill:#4c64f2;}</style></defs><rect class="a" width="62" height="52"/><g transform="translate(8 12)"><path class="b" d="M3.157,22.23C1.913,2.71,21.236,3.18,20.924,13.858c-.151,5.315-4.538,7.2-4.5,9.827.058,3.72,2.447,5.978,2.831,8.64s-.113,4.865-1.213,5.689A4.66,4.66,0,0,1,15.19,39C9.667,39,3.606,29.248,3.157,22.23ZM.367,9.564c1.391-1.788,4.26.917,2.879,2.712a1.391,1.391,0,0,1-1.126.585C.76,12.862-.7,10.94.367,9.564ZM3.983,4.579c2.145-.934,3.6,3.374,1.439,4.309a1.508,1.508,0,0,1-.6.132C3.024,9.022,2.043,5.427,3.983,4.579ZM18.954,6.8c-3.345-.267-2.732-7.072.617-6.795,3.272.262,2.764,6.8-.422,6.8C19.085,6.811,19.02,6.808,18.954,6.8ZM8.613,1.709c2.273-.3,2.649,4.319.357,4.609a1.5,1.5,0,0,1-.2.013C6.669,6.33,6.4,1.98,8.613,1.709ZM13.247.494C15.516.207,15.893,4.823,13.6,5.1a1.6,1.6,0,0,1-.2.013C11.317,5.113,11.024.778,13.247.494Z" transform="translate(0 0)"/><path class="b" d="M3.756,38.013c-1.1-.823-1.6-3.033-1.214-5.689s2.773-4.92,2.831-8.64c.035-2.629-4.353-4.512-4.5-9.827C.558,3.18,19.881,2.71,18.637,22.23,18.188,29.245,12.127,39,6.6,39A4.664,4.664,0,0,1,3.756,38.013ZM18.548,12.276c-1.381-1.795,1.487-4.5,2.878-2.712,1.066,1.376-.392,3.3-1.752,3.3A1.39,1.39,0,0,1,18.548,12.276ZM16.371,8.888c-2.156-.935-.706-5.243,1.443-4.309,1.941.848.956,4.443-.839,4.441A1.511,1.511,0,0,1,16.371,8.888ZM2.224.008C5.572-.269,6.185,6.536,2.84,6.8c-.066.005-.131.008-.2.008C-.54,6.811-1.049.27,2.224.008Zm10.6,6.309c-2.293-.289-1.916-4.906.357-4.609,2.209.272,1.944,4.621-.16,4.621A1.512,1.512,0,0,1,12.824,6.317ZM8.19,5.1C5.9,4.823,6.277.207,8.546.494c2.223.284,1.93,4.619-.154,4.619A1.607,1.607,0,0,1,8.19,5.1Z" transform="translate(24.206 0)"/></g></svg>