<svg xmlns="http://www.w3.org/2000/svg" width="32" height="32" viewBox="0 0 32 32"><defs><style>.a{fill:red;opacity:0;}.b,.c{fill:#8998a5;}.c{fill-rule:evenodd;}</style></defs><rect class="a" width="32" height="32"/><g transform="translate(4.958 3.958)"><path class="b" d="M10.225,2a.694.694,0,0,1,.685.7V4.812a.686.686,0,1,1-1.371,0V2.7A.694.694,0,0,1,10.225,2ZM4.374,4.435a.673.673,0,0,1,.969,0L6.6,5.72a.717.717,0,0,1,0,1,.674.674,0,0,1-.971,0L4.374,5.429A.716.716,0,0,1,4.374,4.435ZM2,10.436a.694.694,0,0,1,.685-.7H4.86a.7.7,0,0,1,0,1.406H2.685A.694.694,0,0,1,2,10.436Zm13.024,0a.694.694,0,0,1,.685-.7h2.056a.7.7,0,0,1,0,1.406H15.709A.694.694,0,0,1,15.024,10.436Zm1.034-5.97a.524.524,0,0,0-.722-.028L9.6,9.465a1.3,1.3,0,0,0-.4,1.285,1.262,1.262,0,0,0,.946.937,1.231,1.231,0,0,0,1.239-.452L16.1,5.194a.557.557,0,0,0-.04-.728Z" transform="translate(0.816 0.817)"/><path class="c" d="M9.2,21.923a11.04,11.04,0,1,1,12.729-9.041A11.04,11.04,0,0,1,9.2,21.923ZM2.759,16.014a16.576,16.576,0,0,1,16.559,0,9.658,9.658,0,1,0-16.559,0Z" transform="translate(0.003 0.004)"/></g></svg>