<svg xmlns="http://www.w3.org/2000/svg" width="40" height="40" viewBox="0 0 40 40"><defs><style>.a{opacity:0.4;}.b{fill:red;opacity:0;}.c{opacity:0.8;}.d{fill:none;stroke:#a0aef7;stroke-miterlimit:10;stroke-width:1.5px;}.e,.g{fill:#4c64f2;}.f{fill:#f7fafd;}.g{stroke:#f7fafd;}</style></defs><g class="a" transform="translate(-1305 -826)"><rect class="b" width="40" height="40" transform="translate(1305 826)"/><g class="c" transform="translate(1040.324 475.141)"><line class="d" y2="4.407" transform="translate(270.299 361.75)"/><line class="d" y2="4.407" transform="translate(275.295 365.776)"/><line class="d" y2="4.407" transform="translate(285.267 365.776)"/><line class="d" y2="4.407" transform="translate(275.295 373.743)"/><line class="d" y2="4.407" transform="translate(285.267 373.743)"/><line class="d" y2="4.407" transform="translate(275.295 381.711)"/><line class="d" y2="4.407" transform="translate(285.267 381.711)"/><line class="d" x1="4.407" transform="translate(273.086 363.954)"/><line class="d" x1="4.407" transform="translate(283.069 363.954)"/><line class="d" x1="4.407" transform="translate(273.086 371.742)"/><line class="d" x1="4.407" transform="translate(283.069 371.742)"/><line class="d" x1="4.407" transform="translate(273.086 379.878)"/><line class="d" x1="4.407" transform="translate(283.069 379.878)"/><line class="d" x1="4.407" transform="translate(268.099 368.007)"/><line class="d" x1="4.407" transform="translate(278.067 368.033)"/><line class="d" x1="4.407" transform="translate(288.06 368.033)"/><line class="d" x1="4.407" transform="translate(268.099 375.916)"/><line class="d" x1="4.407" transform="translate(278.067 375.942)"/><line class="d" x1="4.407" transform="translate(288.06 375.942)"/><line class="d" x1="4.407" transform="translate(268.099 383.902)"/><line class="d" x1="4.407" transform="translate(278.067 383.928)"/><line class="d" x1="4.407" transform="translate(288.06 383.928)"/><line class="d" y2="4.407" transform="translate(280.281 361.75)"/><line class="d" y2="4.407" transform="translate(290.264 361.75)"/><line class="d" y2="4.407" transform="translate(270.299 369.684)"/><line class="d" y2="4.407" transform="translate(280.281 369.684)"/><line class="d" y2="4.407" transform="translate(290.264 369.684)"/><line class="d" y2="4.407" transform="translate(270.299 377.617)"/><line class="d" y2="4.407" transform="translate(280.281 377.617)"/><line class="d" y2="4.407" transform="translate(290.264 377.617)"/><g transform="translate(0 -1.188)"><g transform="translate(271.448 355.281)"><path class="e" d="M298.808,382.012c-.99,0-1.74-.939-2.342-1.853-.163-.247-.332-.5-.5-.742-.406-.6-.827-1.223-1.2-1.871a1.617,1.617,0,0,0-1.506-.9c-1.044-.066-2.087-.181-3.107-.291-.991-.1-2.017-.219-3.027-.284a12.629,12.629,0,0,1-9.578-5.51q-.139-.183-.277-.368a6.428,6.428,0,0,0-.871,5.049c.061.313.129.638.2.949.118.553.239,1.124.324,1.7a1.914,1.914,0,0,1-1.439,2.291l-.063.014a2.453,2.453,0,0,1-.584.076,1.869,1.869,0,0,1-1.812-1.427c-1.035-3.182-1.822-6.312-.1-9.619a30.588,30.588,0,0,0,1.746-4.454c.12-.36.244-.731.369-1.1a3.463,3.463,0,0,1,3.469-2.547c2.476-.08,4.905-.168,7.336-.345a2.127,2.127,0,0,0,1.224-.591c.772-.8,1.506-1.67,2.216-2.5.278-.329.565-.669.851-1a2.291,2.291,0,0,1,1.7-.945,1.944,1.944,0,0,1,1.231.481,1.99,1.99,0,0,1,.8,1.343,2.387,2.387,0,0,1-.642,1.739c-.268.329-.546.653-.815.968a24.1,24.1,0,0,0-1.608,2.016,5.849,5.849,0,0,1-5.043,2.853c-.224,0-.457-.012-.692-.033l2.379,3.2c.393-.224.788-.452,1.172-.673,1.306-.755,2.656-1.535,4.046-2.2a5.339,5.339,0,0,1,2.232-.5,4.064,4.064,0,0,1,.762.068c1.634.306,3.262.748,4.835,1.177.51.139,1.038.283,1.557.417,2.05.54,2.065,1.859,1.893,2.6a1.93,1.93,0,0,1-2.026,1.595,3.9,3.9,0,0,1-.823-.1c-.561-.122-1.128-.259-1.676-.39-.939-.226-1.909-.46-2.866-.626a1.93,1.93,0,0,0-.347-.028,2.457,2.457,0,0,0-1.058.237c-.928.467-1.807.989-2.824,1.594l-.043.025a5.025,5.025,0,0,0,.64.051,1.7,1.7,0,0,0,.2-.007c.138-.01.275-.016.407-.016a4.1,4.1,0,0,1,3.751,2.4c.527.923,1.161,1.819,1.774,2.686.269.383.549.779.817,1.174a3.683,3.683,0,0,1,.921,2.653,1.894,1.894,0,0,1-.89,1.2A1.986,1.986,0,0,1,298.808,382.012Z" transform="translate(-271.386 -355.215)"/><path class="f" d="M291.868,356.284a1.819,1.819,0,0,0-1.308.763c-1.021,1.186-2,2.413-3.087,3.533a2.646,2.646,0,0,1-1.566.747c-2.449.18-4.905.267-7.358.348a2.955,2.955,0,0,0-2.992,2.192,40.464,40.464,0,0,1-2.147,5.623c-1.644,3.155-.858,6.166.135,9.216a1.357,1.357,0,0,0,1.315,1.067,1.883,1.883,0,0,0,.457-.061,1.4,1.4,0,0,0,1.133-1.626c-.006-.033-.014-.066-.021-.1-.129-.882-.348-1.749-.515-2.627a7.14,7.14,0,0,1,1.357-6.061c.247.33.482.65.722.968a12.172,12.172,0,0,0,9.2,5.3c2.047.133,4.082.446,6.129.575a2.13,2.13,0,0,1,1.928,1.158c.507.891,1.112,1.727,1.675,2.586.731,1.106,1.3,1.617,1.906,1.617a1.493,1.493,0,0,0,.81-.282c.967-.632.916-1.515-.176-3.126-.879-1.293-1.838-2.541-2.609-3.894a3.61,3.61,0,0,0-3.3-2.139c-.119,0-.242.005-.367.015-.078.006-.157.008-.235.008-.616,0-1.272-.166-2.178-.273,1.566-.906,2.834-1.711,4.17-2.385a2.969,2.969,0,0,1,1.294-.292,2.451,2.451,0,0,1,.436.037c1.533.267,3.04.689,4.564,1.022a3.393,3.393,0,0,0,.712.085,1.416,1.416,0,0,0,1.518-1.192c.273-1.167-.522-1.71-1.519-1.974-2.112-.555-4.213-1.188-6.355-1.589a3.565,3.565,0,0,0-.666-.058,4.8,4.8,0,0,0-2.007.451c-1.918.921-3.74,2.048-5.588,3.085l-3.214-4.323c.356-.035.6-.092.826-.092.04,0,.08,0,.121.005a6.71,6.71,0,0,0,.724.041,5.377,5.377,0,0,0,4.613-2.628c.731-1.065,1.629-2.013,2.449-3.018.655-.8.794-1.638-.08-2.346a1.432,1.432,0,0,0-.9-.365m0-1.044h0a2.464,2.464,0,0,1,1.559.6,2.507,2.507,0,0,1,.988,1.694,2.884,2.884,0,0,1-.756,2.123c-.272.333-.553.661-.825.978a23.976,23.976,0,0,0-1.574,1.972,6.442,6.442,0,0,1-5.109,3.071l1.461,1.972.768-.443c1.314-.76,2.674-1.545,4.081-2.22a5.886,5.886,0,0,1,2.459-.554,4.84,4.84,0,0,1,.858.076c1.655.313,3.293.756,4.876,1.188.509.139,1.036.282,1.553.418a3.486,3.486,0,0,1,1.74.952,2.391,2.391,0,0,1,.528,2.269,2.439,2.439,0,0,1-2.533,2,4.369,4.369,0,0,1-.939-.1c-.567-.124-1.136-.261-1.687-.393-.931-.224-1.893-.456-2.834-.62a1.637,1.637,0,0,0-.257-.021,1.965,1.965,0,0,0-.823.181c-.43.217-.851.447-1.282.692a4.7,4.7,0,0,1,3.627,2.631c.515.9,1.113,1.747,1.745,2.645.271.384.552.782.823,1.181,1.1,1.625,1.114,2.483,1,3.05A2.387,2.387,0,0,1,300.2,382.1a2.485,2.485,0,0,1-1.381.452c-1.239,0-2.1-1.055-2.777-2.087-.162-.245-.331-.495-.494-.737-.412-.609-.835-1.24-1.217-1.906a1.115,1.115,0,0,0-1.086-.634c-1.054-.067-2.109-.182-3.131-.292-.986-.1-2.006-.218-3-.283a13.019,13.019,0,0,1-9.751-5.443,5.826,5.826,0,0,0-.428,4c.058.313.126.626.192.939.119.56.242,1.141.33,1.733a2.428,2.428,0,0,1-1.863,2.882l-.028.005a2.93,2.93,0,0,1-.712.092,2.389,2.389,0,0,1-2.308-1.788,20.848,20.848,0,0,1-1.1-4.812,9.43,9.43,0,0,1,1.036-5.208,30.134,30.134,0,0,0,1.715-4.378c.12-.361.245-.731.371-1.1a3.986,3.986,0,0,1,3.947-2.9c2.468-.081,4.888-.168,7.314-.345a1.617,1.617,0,0,0,.887-.433c.76-.783,1.487-1.646,2.192-2.482.279-.33.566-.671.854-1.005a2.78,2.78,0,0,1,2.107-1.128Z" transform="translate(-271.408 -355.237)"/></g><circle class="g" cx="3.733" cy="3.733" r="3.733" transform="translate(270.497 354.229)"/></g></g></g></svg>