<svg xmlns="http://www.w3.org/2000/svg" width="40" height="40" viewBox="0 0 40 40"><defs><style>.a{fill:red;opacity:0;}.b,.e{fill:#4c64f2;}.c,.f{fill:#a0aef7;}.d{fill:none;stroke-width:1.5px;}.d,.f{stroke:#a0aef7;stroke-miterlimit:10;}.e{stroke:#4c64f2;stroke-width:0.5px;}.f{stroke-width:2px;}</style></defs><rect class="a" width="40" height="40"/><g transform="translate(-264.164 -462.859)"><g transform="translate(269.164 487.378)"><path class="b" d="M269.164,487.378v9.706h30v-9.706" transform="translate(-269.164 -487.378)"/></g><path class="c" d="M290.884,471l-2.38,4.754h7.976L294.1,471Z" transform="translate(-0.028)"/><path class="c" d="M290.943,467.983v2.07h3.106v-2.07Z" transform="translate(-0.023)"/><line class="d" x1="30" transform="translate(269.164 467.698)"/><path class="e" d="M276.567,477.807a1.8,1.8,0,1,1,3.591,0V479.6h-1.2v1.2h3.592v-1.2h-1.2v-1.793a3,3,0,0,0-5.986,0v6.581h1.2Z" transform="translate(-0.008)"/><line class="f" x1="30" transform="translate(269.164 484.961)"/></g></svg>