<svg id="ic_pd_service_2" xmlns="http://www.w3.org/2000/svg" width="24" height="24" viewBox="0 0 24 24">
    <defs>
        <style>
            .cls-1{fill:#2a534c}
        </style>
    </defs>
    <path id="패스_38259" data-name="패스 38259" class="cls-1" d="M167 261h3v11h-3z" transform="translate(-164 -252)"/>
    <path id="패스_38265" data-name="패스 38265" class="cls-1" d="m181.441 270.091 2.559-6.173v-1.586h-7.713l.863-4.293L174 261.3v8.8h7.441m.188 2h-7.88a1.786 1.786 0 0 1-1.75-1.809v-9.046a1.824 1.824 0 0 1 .508-1.275l5.767-5.97.927.95a1.384 1.384 0 0 1 .385.959l-.026.289-.831 4.134h5.521a1.786 1.786 0 0 1 1.75 1.809v1.809a1.856 1.856 0 0 1-.122.66l-2.643 6.377a1.739 1.739 0 0 1-1.605 1.104z" transform="translate(-164 -252)"/>
    <path id="icon-area" d="M164 252h24v24h-24zm0 0h24v24h-24z" transform="translate(-164 -252)" style="fill:none"/>
</svg>
