<svg xmlns="http://www.w3.org/2000/svg" width="48" height="48" viewBox="0 0 48 48"><defs><style>.a{fill:red;opacity:0;}.b,.e,.g{fill:none;}.b{stroke:#9a9a9a;stroke-width:2px;}.b,.e{stroke-linejoin:round;}.c{fill:rgba(230,51,35,0);}.d{fill:#9a9a9a;}.d,.e{fill-rule:evenodd;}.e{stroke-linecap:round;}.f,.h{stroke:none;}.h{fill:#9a9a9a;}</style></defs><rect class="a" width="48" height="48"/><g class="b"><circle class="f" cx="24" cy="24" r="24"/><circle class="g" cx="24" cy="24" r="23"/></g><rect class="c" width="30" height="30" transform="translate(9.915 10.31)"/><g transform="translate(-19 -348)"><path class="d" d="M42.588,385.46c-11.638-1.2-10.454-10.818-10.454-10.818a14,14,0,0,0,11.04,1.078,22.083,22.083,0,0,1,11.041-1.078C53.914,385.7,42.588,385.46,42.588,385.46Z"/><g class="e"><path class="f" d="M43.742,357.938a30.121,30.121,0,0,0,6.394,8.594c2.621,2.724,4.863,5.056,4.863,8.147.084,7.711-8.19,13.681-16.941,10.4A10.884,10.884,0,0,1,31,374.894v-.215c0-6.217,7.162-13.972,10.424-17.183C42.384,356.552,43,356,43,356Z"/><path class="h" d="M 42.27708053588867 359.4693603515625 C 40.63423919677734 361.1266784667969 38.47745132446289 363.4845886230469 36.62443923950195 366.1127319335938 C 34.25439071655273 369.4741516113281 33.00107955932617 372.4366760253906 33 374.6789855957031 L 33 374.8940124511719 C 33 376.6808776855469 33.53414154052734 378.4111633300781 34.54467010498047 379.8977661132812 C 35.5771598815918 381.4167175292969 37.03483963012695 382.5614624023438 38.75975036621094 383.2081604003906 C 40.16199111938477 383.7335510253906 41.58749008178711 383.9999694824219 42.99665832519531 383.9999694824219 C 44.43666839599609 383.9999694824219 45.82498168945312 383.72509765625 47.12302017211914 383.1829528808594 C 48.36774826049805 382.6631164550781 49.46815872192383 381.9250793457031 50.39368057250977 380.9894409179688 C 52.09920883178711 379.2652282714844 53.02450942993164 377.0318603515625 52.99911880493164 374.7007751464844 C 52.99903869628906 374.6935119628906 52.99900054931641 374.6862487792969 52.99900054931641 374.6789855957031 C 52.99900054931641 372.4029541015625 51.11756896972656 370.4367370605469 48.72906875610352 367.9543151855469 C 46.08940124511719 365.4653625488281 43.92159271240234 362.6138610839844 42.27708053588867 359.4693603515625 M 43.00299835205078 356 L 43.74200057983398 357.93798828125 C 45.31900024414062 361.1300048828125 47.48300170898438 364.0379943847656 50.13600158691406 366.5320129394531 C 52.75699996948242 369.2560119628906 54.99900054931641 371.5880126953125 54.99900054931641 374.6789855957031 C 55.06684494018555 380.9070129394531 49.68102645874023 385.9999694824219 42.99665832519531 385.9999694824219 C 41.40499877929688 385.9999694824219 39.74100875854492 385.7116088867188 38.05799865722656 385.0809936523438 C 33.68899917602539 383.4429931640625 31 379.2909851074219 31 374.8940124511719 L 31 374.6789855957031 C 31.00299835205078 368.4620056152344 38.1619987487793 360.7070007324219 41.42399978637695 357.4960021972656 C 42.38399887084961 356.552001953125 43.00299835205078 356 43.00299835205078 356 Z"/></g><path class="b" d="M41.173,364.325a15.113,15.113,0,0,0-3.777,5.408"/></g></svg>