<svg xmlns="http://www.w3.org/2000/svg" xmlns:xlink="http://www.w3.org/1999/xlink" width="67" height="67" viewBox="0 0 67 67"><defs><style>.a{fill:#fff;}.b{fill:#637789;fill-rule:evenodd;}.c,.d{stroke:none;}.d{fill:#637789;}.e{filter:url(#a);}</style><filter id="a" x="0" y="0" width="67" height="67" filterUnits="userSpaceOnUse"><feOffset dy="2" input="SourceAlpha"/><feGaussianBlur stdDeviation="4" result="b"/><feFlood flood-color="#25292f" flood-opacity="0.149"/><feComposite operator="in" in2="b"/><feComposite in="SourceGraphic"/></filter></defs><g transform="translate(12 10)"><g transform="translate(421 6198) rotate(180)"><g class="e" transform="matrix(-1, 0, 0, -1, 433, 6208)"><circle class="a" cx="21.5" cy="21.5" r="21.5" transform="translate(55 53) rotate(180)"/></g><g class="b" transform="translate(389.5 6167)"><path class="c" d="M 9.250749588012695 14.64935111999512 C 9.011500358581543 14.64935111999512 8.786199569702148 14.56027126312256 8.616359710693359 14.39853191375732 L 4.116879940032959 10.11359119415283 C 3.947319984436035 9.952541351318359 3.849999904632568 9.728611946105957 3.849999904632568 9.499351501464844 C 3.849999904632568 9.27009105682373 3.947319984436035 9.046161651611328 4.117010116577148 8.884971618652344 L 8.61637020111084 4.600171566009521 C 8.786199569702148 4.438431739807129 9.011500358581543 4.349351406097412 9.250749588012695 4.349351406097412 C 9.490010261535645 4.349351406097412 9.715299606323242 4.438431739807129 9.885140419006348 4.600171566009521 C 10.05698013305664 4.763811588287354 10.15161991119385 4.981951713562012 10.15161991119385 5.214411735534668 C 10.15161991119385 5.446871280670166 10.05698013305664 5.665011405944824 9.885129928588867 5.828661441802979 L 6.936697959899902 8.635191917419434 L 15.25008010864258 8.635191917419434 C 15.74629974365234 8.635191917419434 16.14999961853027 9.022851943969727 16.14999961853027 9.499351501464844 C 16.14999961853027 9.975851058959961 15.74629974365234 10.36351108551025 15.25008010864258 10.36351108551025 L 6.936697959899902 10.36351108551025 L 9.885109901428223 13.17002105712891 C 10.05698013305664 13.33369159698486 10.15161991119385 13.55184173583984 10.15161991119385 13.78429126739502 C 10.15161991119385 14.01674175262451 10.05698013305664 14.23489189147949 9.885129928588867 14.39854145050049 C 9.715299606323242 14.56027126312256 9.489999771118164 14.64935111999512 9.250749588012695 14.64935111999512 Z"/><path class="d" d="M 9.250753402709961 4.499354362487793 C 9.058589935302734 4.499354362487793 8.866424560546875 4.56916618347168 8.719809532165527 4.708791732788086 L 4.220319747924805 8.993731498718262 C 4.079270362854004 9.127711296081543 4 9.30963134765625 4 9.499351501464844 C 4 9.689071655273438 4.079270362854004 9.870991706848145 4.220319747924805 10.00497150421143 L 8.719809532165527 14.2899112701416 C 8.866424560546875 14.42953681945801 9.058587074279785 14.49934959411621 9.250749588012695 14.49934959411621 C 9.442912101745605 14.49934959411621 9.635074615478516 14.42953681945801 9.781689643859863 14.2899112701416 C 10.07493019104004 14.01066207885742 10.07493019104004 13.55791091918945 9.781689643859863 13.27867126464844 L 6.561550140380859 10.21351146697998 L 15.25008010864258 10.21351146697998 C 15.66424942016602 10.21351146697998 16 9.893771171569824 16 9.499351501464844 C 16 9.104931831359863 15.66424942016602 8.785191535949707 15.25008010864258 8.785191535949707 L 6.561550140380859 8.785191535949707 L 9.781689643859863 5.72003173828125 C 10.07493019104004 5.440781593322754 10.07493019104004 4.988031387329102 9.781689643859863 4.708791732788086 C 9.635080337524414 4.56916618347168 9.442917823791504 4.499354362487793 9.250753402709961 4.499354362487793 M 9.250749588012695 4.19935131072998 C 9.52869987487793 4.19935131072998 9.790740013122559 4.303121566772461 9.988590240478516 4.491551399230957 C 10.19044017791748 4.683771133422852 10.30161952972412 4.940481185913086 10.30161952972412 5.214401245117188 C 10.30161952972412 5.488321304321289 10.19044971466064 5.745041847229004 9.988579750061035 5.937281608581543 L 7.311844825744629 8.485191345214844 L 15.25008010864258 8.485191345214844 C 15.82901000976562 8.485191345214844 16.29999923706055 8.940141677856445 16.29999923706055 9.499351501464844 C 16.29999923706055 10.05856132507324 15.82901000976562 10.51351165771484 15.25008010864258 10.51351165771484 L 7.311845779418945 10.51351165771484 L 9.988530158996582 13.06137084960938 C 10.19044017791748 13.25365161895752 10.30161952972412 13.51036167144775 10.30161952972412 13.78428173065186 C 10.30161952972412 14.05820083618164 10.19044971466064 14.31492137908936 9.988579750061035 14.50716209411621 C 9.79071044921875 14.69558143615723 9.528679847717285 14.79935169219971 9.250749588012695 14.79935169219971 C 8.972809791564941 14.79935169219971 8.710780143737793 14.69558143615723 8.512920379638672 14.50716209411621 L 4.013429641723633 10.22222137451172 C 3.814340591430664 10.03311157226562 3.700000762939453 9.76954174041748 3.700000762939453 9.499351501464844 C 3.700000762939453 9.229161262512207 3.814340591430664 8.965591430664062 4.013710021972656 8.77622127532959 L 8.512920379638672 4.491541862487793 C 8.710760116577148 4.303121566772461 8.972800254821777 4.19935131072998 9.250749588012695 4.19935131072998 Z"/></g></g></g></svg>