<svg xmlns="http://www.w3.org/2000/svg" width="20" height="20" viewBox="0 0 20 20"><defs><style>.a{fill:red;opacity:0;}.b{fill:#8998a5;}</style></defs><rect class="a" width="20" height="20"/><path class="b" d="M169.342,405.579V391.6a1.753,1.753,0,0,0-1.82-1.678h-.606v-.563a.583.583,0,0,0-.605-.56.629.629,0,0,0-.087.006l-8.493,1.119a.576.576,0,0,0-.522.554v15.1h-2.427V406.7h16.987v-1.121Zm-5.464-7.829c.334,0,.606.5.606,1.119s-.265,1.119-.6,1.119h0c-.335,0-.606-.5-.606-1.119S163.544,397.75,163.878,397.75Zm3.037-6.71h.606a.582.582,0,0,1,.6.562h0v13.976h-1.21Z" transform="translate(-153.202 -387.802)"/></svg>