<svg xmlns="http://www.w3.org/2000/svg" width="120" height="48" viewBox="0 0 120 48"><defs><style>.a{fill:#cbb702;}.b{font-size:15px;font-family:NotoSansKR-Medium, Noto Sans KR;font-weight:500;letter-spacing:-0.02em;}.c{fill:#301818;}</style></defs><rect class="a" width="120" height="48" rx="24"/><text class="b" transform="translate(19 29)"><tspan x="0" y="0">1:1 상담</tspan></text><g transform="translate(80 13)"><g transform="translate(0 0)"><path class="c" d="M105.713,150.458s1.493.157,2.267.157c7.18,0,13-4.623,13-10.327s-5.82-10.326-13-10.326-13,4.624-13,10.326c0,3.535,2.236,6.655,5.646,8.517a9.713,9.713,0,0,1-3.038,4.836s-.255.451.509.283A30.116,30.116,0,0,0,105.713,150.458Z" transform="translate(-94.98 -129.962)"/></g></g><g transform="translate(82.791 19.861)"><path class="a" d="M113.22,164.125h-3.883a.666.666,0,0,0,0,1.331H110.6v4.688a.654.654,0,0,0,.19.459.638.638,0,0,0,.454.19h.141a.639.639,0,0,0,.453-.19.656.656,0,0,0,.19-.459v-4.688h1.193a.666.666,0,0,0,0-1.331Z" transform="translate(-108.676 -164.032)"/><path class="a" d="M164.113,169.178h-1.8V164.39a.717.717,0,1,0-1.434,0v5.161a.7.7,0,0,0,.012.116.571.571,0,0,0-.012.116.6.6,0,0,0,.6.6h2.639a.6.6,0,0,0,0-1.209Z" transform="translate(-150.237 -163.668)"/><path class="a" d="M135.717,169.57l-1.935-5.335-.007-.006a.95.95,0,0,0-.907-.561.924.924,0,0,0-.941.671.894.894,0,0,0-.037.087l-1.9,5.144a.648.648,0,0,0,.392.825.64.64,0,0,0,.819-.4l.33-.947h2.648l.329.947a.64.64,0,0,0,.818.4A.648.648,0,0,0,135.717,169.57Zm-3.769-1.727.89-2.559c.01,0,.019,0,.029,0l.889,2.556Z" transform="translate(-125.615 -163.668)"/><path class="a" d="M186.446,169.4l-2.012-2.664,1.818-1.833a.639.639,0,0,0,0-.9.628.628,0,0,0-.892,0l-2.251,2.268V164.39a.717.717,0,1,0-1.434,0v5.319a.717.717,0,1,0,1.434,0v-1.641l.409-.412,1.9,2.517a.636.636,0,0,0,.9.128A.648.648,0,0,0,186.446,169.4Z" transform="translate(-166.799 -163.668)"/></g></svg>