<svg xmlns="http://www.w3.org/2000/svg" width="301" height="301" viewBox="0 0 301 301"><defs><style>.a{fill:red;opacity:0;}.b{fill:rgba(255,255,255,0.5);stroke:rgba(31,32,34,0.2);stroke-miterlimit:10;}</style></defs><rect class="a" width="301" height="301"/><g transform="translate(-429 -4889)"><g transform="translate(445.462 4992.396)"><path class="b" d="M6.224,44.518C3.771,5.428,41.867,6.368,41.253,27.753c-.3,10.643-8.947,14.414-8.879,19.679.115,7.45,4.825,11.972,5.581,17.3s-.222,9.744-2.392,11.392A9.1,9.1,0,0,1,29.948,78.1C19.058,78.1,7.108,58.571,6.224,44.518ZM.724,19.153c2.742-3.581,8.4,1.837,5.676,5.431a2.73,2.73,0,0,1-2.22,1.172C1.5,25.757-1.376,21.908.724,19.153ZM7.853,9.17c4.229-1.87,7.095,6.757,2.837,8.63a2.935,2.935,0,0,1-1.191.265C5.963,18.067,4.027,10.869,7.853,9.17Zm29.514,4.453C30.773,13.089,31.981-.538,38.583.016c6.451.524,5.449,13.622-.832,13.622C37.626,13.639,37.5,13.634,37.367,13.624ZM16.98,3.421c4.481-.595,5.223,8.65.7,9.229a2.916,2.916,0,0,1-.387.025C13.147,12.676,12.627,3.966,16.98,3.421ZM26.117.989c4.474-.575,5.217,8.67.7,9.224a3.106,3.106,0,0,1-.4.025C22.311,10.239,21.734,1.559,26.117.989Z" transform="translate(0 0)"/><path class="b" d="M7.4,76.126c-2.17-1.648-3.149-6.074-2.393-11.392s5.467-9.852,5.581-17.3c.068-5.265-8.582-9.035-8.879-19.679C1.1,6.368,39.195,5.428,36.742,44.518,35.858,58.566,23.908,78.1,13.017,78.1A9.1,9.1,0,0,1,7.4,76.126ZM36.567,24.585c-2.723-3.594,2.932-9.013,5.675-5.431,2.1,2.755-.774,6.6-3.454,6.6A2.727,2.727,0,0,1,36.567,24.585ZM32.276,17.8c-4.251-1.873-1.392-10.5,2.844-8.63,3.826,1.7,1.884,8.9-1.653,8.894A2.939,2.939,0,0,1,32.276,17.8ZM4.384.016c6.6-.554,7.811,13.073,1.216,13.607-.131.01-.258.015-.386.015C-1.065,13.639-2.068.541,4.384.016Zm20.9,12.634c-4.52-.58-3.777-9.824.7-9.229,4.355.544,3.833,9.255-.315,9.255A2.935,2.935,0,0,1,25.282,12.651Zm-9.136-2.437c-4.513-.554-3.77-9.8.7-9.224,4.383.57,3.806,9.25-.3,9.25A3.12,3.12,0,0,1,16.146,10.214Z" transform="translate(50.109 -39.051)"/></g><g transform="translate(538.537 5087.656)"><path class="b" d="M3.691,26.4C2.237,3.219,24.83,3.776,24.465,16.459c-.176,6.312-5.306,8.548-5.266,11.671.068,4.418,2.862,7.1,3.31,10.261s-.132,5.779-1.418,6.756a5.394,5.394,0,0,1-3.33,1.172C11.3,46.319,4.216,34.737,3.691,26.4ZM.43,11.359C2.056,9.235,5.411,12.449,3.8,14.58a1.619,1.619,0,0,1-1.317.7C.888,15.275-.816,12.993.43,11.359ZM4.657,5.439C7.166,4.33,8.865,9.446,6.34,10.557a1.741,1.741,0,0,1-.706.157C3.536,10.715,2.388,6.446,4.657,5.439Zm17.5,2.641c-3.911-.317-3.194-8.4.721-8.07,3.826.311,3.232,8.079-.493,8.079C22.315,8.089,22.238,8.086,22.161,8.08ZM10.071,2.029c2.658-.353,3.1,5.13.417,5.474a1.73,1.73,0,0,1-.229.015C7.8,7.518,7.488,2.352,10.071,2.029ZM15.489.587c2.653-.341,3.094,5.142.417,5.471a1.842,1.842,0,0,1-.237.015C13.232,6.072,12.89.925,15.489.587Z" transform="translate(0 0)"/><path class="b" d="M4.391,45.147c-1.287-.978-1.868-3.6-1.419-6.756s3.242-5.843,3.31-10.261c.04-3.122-5.09-5.359-5.266-11.671C.652,3.776,23.245,3.219,21.791,26.4c-.525,8.332-7.612,19.917-14.071,19.917A5.4,5.4,0,0,1,4.391,45.147Zm17.3-30.567c-1.615-2.131,1.739-5.345,3.365-3.221,1.246,1.634-.459,3.916-2.049,3.916A1.617,1.617,0,0,1,21.687,14.58Zm-2.545-4.024c-2.521-1.111-.826-6.227,1.687-5.118,2.269,1.007,1.117,5.276-.981,5.275A1.743,1.743,0,0,1,19.142,10.557ZM2.6.01c3.915-.329,4.632,7.753.721,8.07-.078.006-.153.009-.229.009C-.632,8.089-1.227.321,2.6.01ZM14.994,7.5c-2.681-.344-2.24-5.826.417-5.474,2.583.323,2.273,5.489-.187,5.489A1.74,1.74,0,0,1,14.994,7.5ZM9.576,6.057C6.9,5.729,7.34.246,9.993.587c2.6.338,2.257,5.486-.18,5.486A1.85,1.85,0,0,1,9.576,6.057Z" transform="translate(30.311 -23.16)"/></g><g transform="translate(633.874 5048.719)"><path class="b" d="M5.029,35.974C3.048,4.386,33.832,5.146,33.335,22.426c-.24,8.6-7.23,11.648-7.175,15.9.093,6.02,3.9,9.674,4.51,13.981s-.179,7.874-1.933,9.206a7.349,7.349,0,0,1-4.538,1.6C15.4,63.112,5.744,47.33,5.029,35.974ZM.585,15.477c2.216-2.894,6.787,1.485,4.586,4.389a2.206,2.206,0,0,1-1.794.947C1.211,20.813-1.112,17.7.585,15.477ZM6.346,7.41c3.417-1.511,5.733,5.46,2.292,6.973a2.372,2.372,0,0,1-.962.214C4.818,14.6,3.254,8.783,6.346,7.41Zm23.85,3.6c-5.329-.432-4.352-11.444.983-11,5.213.424,4.4,11.008-.672,11.008C30.4,11.021,30.3,11.017,30.2,11.009ZM13.722,2.765c3.621-.481,4.221,6.99.568,7.458a2.357,2.357,0,0,1-.313.02C10.624,10.243,10.2,3.2,13.722,2.765ZM21.1.8c3.615-.464,4.216,7.006.568,7.454a2.51,2.51,0,0,1-.323.02C18.029,8.274,17.563,1.26,21.1.8Z" transform="translate(0 0)"/><path class="b" d="M5.983,61.516C4.23,60.184,3.439,56.607,4.05,52.31s4.417-7.961,4.51-13.981c.055-4.255-6.935-7.3-7.175-15.9C.889,5.146,31.672,4.386,29.691,35.974c-.715,11.352-10.372,27.138-19.172,27.138A7.356,7.356,0,0,1,5.983,61.516ZM29.549,19.866c-2.2-2.9,2.37-7.283,4.585-4.389,1.7,2.226-.625,5.336-2.791,5.336A2.2,2.2,0,0,1,29.549,19.866Zm-3.467-5.483c-3.435-1.513-1.125-8.485,2.3-6.973C31.472,8.783,29.9,14.6,27.044,14.6A2.375,2.375,0,0,1,26.082,14.384ZM3.542.013c5.334-.448,6.312,10.564.983,11-.106.008-.209.012-.312.012C-.861,11.021-1.671.437,3.542.013ZM20.43,10.223c-3.653-.468-3.052-7.939.568-7.458,3.519.44,3.1,7.479-.255,7.479A2.371,2.371,0,0,1,20.43,10.223ZM13.047,8.254C9.4,7.805,10,.335,13.616.8c3.542.46,3.075,7.474-.245,7.474A2.521,2.521,0,0,1,13.047,8.254Z" transform="translate(39.533 -31.555)"/></g></g></svg>