<svg id="ic_footer_sns_blog" xmlns="http://www.w3.org/2000/svg" width="36" height="36">
    <defs>
        <style>
            .cls-1{fill:#438277}
        </style>
    </defs>
    <g id="그룹_17146" data-name="그룹 17146" transform="translate(-879 -907)">
        <path id="패스_8173" data-name="패스 8173" class="cls-1" d="M433.075 319.594a1.188 1.188 0 1 0 1.188 1.188 1.188 1.188 0 0 0-1.188-1.188z" transform="translate(455.566 601.62)"/>
        <path id="패스_8174" data-name="패스 8174" class="cls-1" d="M480.939 319.085a1.279 1.279 0 1 0 1.279 1.279 1.279 1.279 0 0 0-1.279-1.279z" transform="translate(417.79 602.011)"/>
        <path id="패스_8175" data-name="패스 8175" class="cls-1" d="M431.855 271.144h-21.974a4.026 4.026 0 0 0-4.013 4.038V288.3a4.026 4.026 0 0 0 4.013 4.039h7.761l2.64 6.258s.182.543.622.543.622-.543.622-.543l2.64-6.258h7.69a4.026 4.026 0 0 0 4.013-4.039v-13.118a4.026 4.026 0 0 0-4.014-4.038zm-16.562 11.6a2.49 2.49 0 0 1-2.478 2.467 2.055 2.055 0 0 1-1.491-.636v.432h-1.795v-7.449c-.007 0-.008 0 0 0 .111.018 1.795 0 1.795 0v2.842c.422-.724 1.643-.712 1.643-.712 2.658.253 2.326 3.056 2.326 3.056zm3.16-2.824v5.1H416.7v-5.05c0-.687-.847-.878-.847-.878v-1.781a2.44 2.44 0 0 1 2.6 2.61zm4.165 5.294a2.736 2.736 0 1 1 2.945-2.728 2.843 2.843 0 0 1-2.945 2.729zm9.626 0a2.517 2.517 0 0 1-2.591 2.592h-.8v-1.679h.48s1.1.1 1.087-1.6c0 0-.215.69-1.757.69a2.321 2.321 0 0 1-2.187-2.305v-.812a2.509 2.509 0 0 1 2.452-2.4 1.783 1.783 0 0 1 1.529.687v-.547h1.783z" transform="translate(476.132 639.856)"/>
        <path id="패스_8176" data-name="패스 8176" class="cls-1" d="M513.27 319.2a1.25 1.25 0 1 0 1.25 1.25 1.25 1.25 0 0 0-1.25-1.25z" transform="translate(392.212 601.92)"/>
    </g>
</svg>
