<svg xmlns="http://www.w3.org/2000/svg" width="32" height="32" viewBox="0 0 32 32"><defs><style>.a{fill:#4c64f2;}.b{fill:red;opacity:0;}</style></defs><g transform="translate(7 6)"><path class="a" d="M8.347,4.122a.217.217,0,0,1,.389,0l.771,1.564a.217.217,0,0,0,.163.119l1.728.251a.216.216,0,0,1,.119.369L10.27,7.642a.217.217,0,0,0-.062.192l.294,1.72a.217.217,0,0,1-.314.228L8.643,8.969a.217.217,0,0,0-.2,0L6.9,9.782a.217.217,0,0,1-.313-.228l.294-1.72a.217.217,0,0,0-.061-.192L5.565,6.424a.217.217,0,0,1,.119-.369L7.412,5.8a.217.217,0,0,0,.163-.119Z" transform="translate(0.458 0.582)"/><path class="a" d="M2,2.333A2.333,2.333,0,0,1,4.333,0h9.333A2.333,2.333,0,0,1,16,2.333v15.75a.583.583,0,0,1-.907.485L9,15.284,2.906,18.569A.583.583,0,0,1,2,18.083ZM4.333,1.167A1.167,1.167,0,0,0,3.167,2.333v14.66l5.51-2.9a.583.583,0,0,1,.646,0l5.51,2.9V2.333a1.167,1.167,0,0,0-1.167-1.167Z" transform="translate(0 0)"/></g><rect class="b" width="32" height="32"/></svg>