<svg id="icon_favicon_24" xmlns="http://www.w3.org/2000/svg" width="24" height="24">
    <defs>
        <style>
            .cls-1{fill:#2a534c}.cls-2{fill:#ffe0dd}
        </style>
    </defs>
    <path id="패스_8172" data-name="패스 8172" class="cls-1" d="M0 0h24v24H0z"/>
    <g id="그룹_17137" data-name="그룹 17137" transform="translate(-320.125 -176.606)">
        <circle id="타원_1437" data-name="타원 1437" class="cls-2" cx="1.512" cy="1.512" transform="translate(326.123 182.871)" r="1.512"/>
        <path id="타원_1437_-_윤곽선" data-name="타원 1437 - 윤곽선" class="cls-1" d="M1.512-.25A1.762 1.762 0 1 1-.25 1.512 1.764 1.764 0 0 1 1.512-.25zm0 3.023A1.262 1.262 0 1 0 .25 1.512a1.263 1.263 0 0 0 1.262 1.261z" transform="translate(326.123 182.871)"/>
        <circle id="타원_1438" data-name="타원 1438" class="cls-2" cx="1.512" cy="1.512" transform="translate(326.123 189.606)" r="1.512"/>
        <path id="타원_1438_-_윤곽선" data-name="타원 1438 - 윤곽선" class="cls-1" d="M1.512-.25A1.762 1.762 0 1 1-.25 1.512 1.764 1.764 0 0 1 1.512-.25zm0 3.023A1.262 1.262 0 1 0 .25 1.512a1.263 1.263 0 0 0 1.262 1.261z" transform="translate(326.123 189.606)"/>
        <path id="패스_8171" data-name="패스 8171" class="cls-2" d="M178.054 170.522a3.888 3.888 0 0 0-2.644.954v-.733h-2.664v15.091h2.754v-5.188a3.59 3.59 0 0 0 2.44.841c2.619 0 4.311-1.816 4.311-4.624v-1.79c.002-2.893-1.528-4.551-4.197-4.551zm1.462 4.92v1.158c0 .926-.24 2.478-1.85 2.478a2.1 2.1 0 0 1-2.2-1.795v-2.158a1.988 1.988 0 0 1 2.145-2.182c1.3.003 1.905.796 1.905 2.499z" transform="translate(157.868 11.46)"/>
        <path id="패스_8171_-_윤곽선" data-name="패스 8171 - 윤곽선" class="cls-1" d="M178.054 170.272a4.321 4.321 0 0 1 3.284 1.271 5.032 5.032 0 0 1 1.165 3.53v1.79a5.066 5.066 0 0 1-1.241 3.536 4.4 4.4 0 0 1-3.32 1.338 4.022 4.022 0 0 1-2.19-.589v4.936H172.5v-15.591h3.164v.461a4.406 4.406 0 0 1 2.39-.682zm-.111 10.965a3.912 3.912 0 0 0 2.955-1.179 4.579 4.579 0 0 0 1.102-3.195v-1.79a4.556 4.556 0 0 0-1.033-3.191 3.788 3.788 0 0 0-2.917-1.11 3.663 3.663 0 0 0-2.471.885l-.423.407v-1.071H173v14.591h2.256v-5.5l.417.373a3.338 3.338 0 0 0 2.269.78zm-.332-8.54c1.45 0 2.155.9 2.155 2.745v1.158c0 1.734-.765 2.728-2.1 2.728a2.635 2.635 0 0 1-1.737-.641 1.917 1.917 0 0 1-.713-1.4v-2.158a2.239 2.239 0 0 1 2.395-2.429zm.055 6.135c1.323 0 1.6-1.212 1.6-2.228v-1.162a2.892 2.892 0 0 0-.414-1.734 1.45 1.45 0 0 0-1.242-.511 1.742 1.742 0 0 0-1.895 1.932v2.158a1.874 1.874 0 0 0 1.951 1.544z" transform="translate(157.868 11.46)"/>
    </g>
</svg>
