<svg xmlns="http://www.w3.org/2000/svg" width="40.4" height="40" viewBox="0 0 40.4 40"><defs><style>.a{fill:red;opacity:0;}.b,.f{fill:none;}.b{stroke:#a0aef7;stroke-width:1.5px;}.b,.e,.f{stroke-miterlimit:10;}.c{fill:#a0aef7;}.d,.e{fill:#4c64f2;}.f{stroke:#4c64f2;stroke-width:2px;}.g,.h{stroke:none;}.h{fill:#f7fafd;}</style></defs><g transform="translate(0.4)"><rect class="a" width="40" height="40"/><g transform="translate(-157.676 -462.859)"><line class="b" y2="24.521" transform="translate(192.53 471.673)"/><line class="b" x2="7.601" transform="translate(188.731 496.194)"/><path class="c" d="M196.078,473.519h-9.094l1.8-7.475h5.486Z" transform="translate(1)"/><rect class="d" width="21.378" height="10.759" transform="translate(160.966 479.519)"/><g class="e"><path class="g" d="M 185.3338470458984 495.489013671875 L 184.6338500976562 495.489013671875 L 162.8758544921875 495.489013671875 L 158.6758422851562 495.489013671875 L 157.9758453369141 495.489013671875 L 157.9758453369141 494.7890014648438 L 157.9758453369141 486.3889770507812 L 157.9758453369141 485.68896484375 L 158.6758422851562 485.68896484375 L 160.9658813476562 485.68896484375 L 161.6658935546875 485.68896484375 L 161.6658935546875 486.3889770507812 L 161.6658935546875 487.98095703125 L 181.6438751220703 487.98095703125 L 181.6438751220703 486.3889770507812 L 181.6438751220703 485.68896484375 L 182.3438720703125 485.68896484375 L 184.6338500976562 485.68896484375 L 185.3338470458984 485.68896484375 L 185.3338470458984 486.3889770507812 L 185.3338470458984 494.7890014648438 L 185.3338470458984 495.489013671875 Z"/><path class="h" d="M 158.6758422851562 486.3889770507812 L 158.6758422851562 494.7890014648438 L 162.8758544921875 494.7890014648438 L 184.6338500976562 494.7890014648438 L 184.6338500976562 486.3889770507812 L 182.3438720703125 486.3889770507812 L 182.3438720703125 488.6809692382812 L 160.9658813476562 488.6809692382812 L 160.9658813476562 486.3889770507812 L 158.6758422851562 486.3889770507812 M 157.2758483886719 484.9889831542969 L 158.6758422851562 484.9889831542969 L 160.9658813476562 484.9889831542969 L 162.3658752441406 484.9889831542969 L 162.3658752441406 486.3889770507812 L 162.3658752441406 487.2809753417969 L 180.9438781738281 487.2809753417969 L 180.9438781738281 486.3889770507812 L 180.9438781738281 484.9889831542969 L 182.3438720703125 484.9889831542969 L 184.6338500976562 484.9889831542969 L 186.0338439941406 484.9889831542969 L 186.0338439941406 486.3889770507812 L 186.0338439941406 494.7890014648438 L 186.0338439941406 496.1889953613281 L 184.6338500976562 496.1889953613281 L 162.8758544921875 496.1889953613281 L 158.6758422851562 496.1889953613281 L 157.2758483886719 496.1889953613281 L 157.2758483886719 494.7890014648438 L 157.2758483886719 486.3889770507812 L 157.2758483886719 484.9889831542969 Z"/></g><line class="f" y2="3.268" transform="translate(181.537 493.816)"/><line class="f" y2="3.268" transform="translate(162.305 493.816)"/></g></g></svg>