<svg xmlns="http://www.w3.org/2000/svg" width="40" height="40" viewBox="0 0 40 40"><defs><style>.a{fill:red;opacity:0;}.b{opacity:0.4;}.c,.d,.h{fill:#4c64f2;}.c,.f{stroke:#4c64f2;}.c{stroke-width:0.5px;}.e{fill:#a0aef7;}.e,.g{stroke:#a0aef7;}.e,.f,.g,.h{stroke-miterlimit:10;}.e,.f{stroke-width:2px;}.f,.g{fill:none;}.g{stroke-width:1.5px;}.h{stroke:#f7fafd;}</style></defs><rect class="a" width="40" height="40"/><g class="b" transform="translate(-370.676 -462.859)"><g transform="translate(378.667 471.562)"><path class="c" d="M381.588,471.562a2.929,2.929,0,0,0-2.921,2.924v9.964h1.064v-9.964a1.863,1.863,0,1,1,3.725,0v.851a2.661,2.661,0,0,0-2.126,2.6v.531a.532.532,0,0,0,.531.532h4.254a.532.532,0,0,0,.531-.532v-.531a2.661,2.661,0,0,0-2.126-2.6v-.851A2.93,2.93,0,0,0,381.588,471.562Z" transform="translate(-378.667 -471.562)"/></g><g transform="translate(375.21 487.378)"><path class="d" d="M375.21,487.378l1.9,8.072h26.2l1.9-8.072" transform="translate(-375.21 -487.378)"/></g><line class="e" x1="30" transform="translate(375.214 484.961)"/><g transform="translate(380.594 493.816)"><line class="f" y2="3.268" transform="translate(19.232)"/></g><line class="g" x1="16.586" transform="translate(388.624 467.698)"/><g transform="translate(391.627 467.698)"><line class="g" y1="10.308"/><line class="g" y1="10.308" transform="translate(3.526)"/><line class="g" y1="10.308" transform="translate(7.053)"/><line class="g" y1="10.308" transform="translate(10.579)"/></g><rect class="h" width="46.83" height="3.839" transform="translate(373.176 497.231) rotate(-45)"/></g></svg>