<svg xmlns="http://www.w3.org/2000/svg" width="48" height="48" viewBox="0 0 48 48"><defs><style>.a{fill:#1f2022;opacity:0.998;}</style></defs><path class="a" d="M24,48A24,24,0,1,0,0,24,24,24,0,0,0,24,48ZM21,19.5c0,2.484-1.344,4.5-3,4.5s-3-2.016-3-4.5S16.344,15,18,15,21,17.016,21,19.5Zm-8.145,9.2a1.5,1.5,0,0,1,2.049.549,10.5,10.5,0,0,0,18.192,0,1.5,1.5,0,1,1,2.6,1.5,13.5,13.5,0,0,1-23.388,0,1.5,1.5,0,0,1,.549-2.049ZM30,24c-1.656,0-3-2.016-3-4.5S28.344,15,30,15s3,2.016,3,4.5S31.656,24,30,24Z" transform="translate(0 0)"/></svg>