<svg xmlns="http://www.w3.org/2000/svg" width="40" height="40" viewBox="0 0 40 40"><defs><style>.a{fill:red;opacity:0;}.b,.c{fill:none;stroke-miterlimit:10;stroke-width:2px;}.b{stroke:#a0aef7;}.c{stroke:#4c64f2;}.d{fill:#4c64f2;}</style></defs><rect class="a" width="40" height="40"/><g transform="translate(-158.619 -351.859)"><line class="b" x2="34" transform="translate(161.619 385.674)"/><path class="c" d="M189.969,367.381l5.7.738-.738,5.709"/><path class="c" d="M172.425,373.712v2.847a4.649,4.649,0,0,0,7.481,3.686h0L194.7,368.923"/><circle class="d" cx="5.13" cy="5.13" r="5.13" transform="translate(167.273 360.395)"/><line class="b" y2="4.1" transform="translate(172.403 354.24)"/><line class="b" x2="2.899" y2="2.899" transform="translate(164.424 357.545)"/><line class="b" x2="4.1" transform="translate(161.119 365.525)"/><line class="b" y1="2.899" x2="2.899" transform="translate(164.424 370.605)"/><line class="b" x1="2.899" y1="2.899" transform="translate(177.483 370.605)"/><line class="b" x1="4.1" transform="translate(179.588 365.525)"/><line class="b" x1="2.899" y2="2.899" transform="translate(177.483 357.545)"/><line class="c" y1="4.1" transform="translate(172.403 372.709)"/></g></svg>