<svg xmlns="http://www.w3.org/2000/svg" width="62" height="52" viewBox="0 0 62 52"><defs><style>.a{fill:red;opacity:0;}.b{fill:#4c64f2;}</style></defs><rect class="a" width="62" height="52"/><g transform="translate(14 23)"><path class="b" d="M2.28,15.96C1.382,1.946,15.34,2.283,15.114,9.95c-.109,3.816-3.278,5.167-3.253,7.055.042,2.671,1.768,4.292,2.045,6.2s-.081,3.493-.876,4.084A3.379,3.379,0,0,1,10.972,28C6.983,28,2.6,21,2.28,15.96ZM.265,6.867c1-1.284,3.077.659,2.08,1.947a1.007,1.007,0,0,1-.814.42C.549,9.234-.5,7.854.265,6.867ZM2.877,3.288c1.549-.67,2.6,2.422,1.039,3.094a1.1,1.1,0,0,1-.436.095C2.185,6.477,1.475,3.9,2.877,3.288Zm10.814,1.6c-2.416-.192-1.973-5.077.446-4.878,2.363.188,2,4.884-.3,4.884C13.786,4.89,13.738,4.888,13.691,4.884ZM6.221,1.227c1.642-.213,1.914,3.1.258,3.309a1.092,1.092,0,0,1-.142.009C4.817,4.544,4.626,1.422,6.221,1.227ZM9.569.355c1.639-.206,1.911,3.108.258,3.307a1.163,1.163,0,0,1-.146.009C8.174,3.671,7.963.559,9.569.355Z" transform="translate(0 0)"/><path class="b" d="M2.713,27.292c-.8-.591-1.154-2.178-.877-4.084s2-3.532,2.045-6.2C3.906,15.117.737,13.765.628,9.95c-.225-7.667,13.733-8,12.834,6.01C13.138,21,8.759,28,4.769,28A3.382,3.382,0,0,1,2.713,27.292ZM13.4,8.814c-1-1.288,1.074-3.231,2.079-1.947.77.988-.283,2.367-1.266,2.367A1.006,1.006,0,0,1,13.4,8.814ZM11.826,6.381c-1.557-.671-.51-3.764,1.042-3.094,1.4.609.69,3.19-.606,3.189A1.1,1.1,0,0,1,11.826,6.381ZM1.606.006c2.418-.2,2.862,4.687.446,4.878-.048,0-.095.005-.141.005C-.39,4.89-.758.194,1.606.006Zm7.657,4.53c-1.656-.208-1.384-3.522.258-3.309,1.6.2,1.4,3.318-.115,3.318A1.1,1.1,0,0,1,9.263,4.535ZM5.916,3.662C4.262,3.463,4.534.149,6.173.355c1.606.2,1.394,3.316-.111,3.316A1.168,1.168,0,0,1,5.916,3.662Z" transform="translate(18.258 0)"/></g></svg>