<svg xmlns="http://www.w3.org/2000/svg" width="32" height="32" viewBox="0 0 32 32"><defs><style>.a{fill:red;opacity:0;}.b{fill:#8998a5;}</style></defs><rect class="a" width="32" height="32"/><g transform="translate(4 5)"><path class="b" d="M21.18,15.244l2.572,1.287a.448.448,0,0,1,0,.8L12.4,23.009a.9.9,0,0,1-.8,0L.248,17.332a.448.448,0,0,1,0-.8l2.574-1.287L10.8,19.232a2.694,2.694,0,0,0,2.406,0l7.975-3.99ZM11.6.094a.9.9,0,0,1,.8,0L23.752,5.77a.45.45,0,0,1,0,.8L12.4,12.247a.9.9,0,0,1-.8,0L.248,6.573a.448.448,0,0,1,0-.8Z" transform="translate(0 0)"/><path class="b" d="M21.179,6.576l2.572,1.311a.46.46,0,0,1,0,.816L12.4,14.487a.882.882,0,0,1-.8,0L.247,8.7a.461.461,0,0,1,0-.816L2.821,6.576,10.8,10.64a2.649,2.649,0,0,0,2.406,0l7.975-4.064Z" transform="translate(0.001 3.191)"/></g></svg>