<svg id="icon_apt_sm" xmlns="http://www.w3.org/2000/svg" width="56" height="45" viewBox="0 0 56 45">
    <defs>
        <style>
            .cls-1,.cls-2{fill:#bdded8;stroke:#08564c;stroke-width:2px}.cls-2{fill:none}
        </style>
    </defs>
    <g id="icon-apt" transform="translate(7 8.275)">
        <path id="패스_8251" data-name="패스 8251" class="cls-1" d="M-12397-3652.562v-20l5.5-3 5.5 3v20" transform="translate(12400.998 3678.287)"/>
        <path id="패스_8261" data-name="패스 8261" class="cls-1" d="M-12397-3658.786v-12.771l5.5-3.005 5.5 3.005v12.771" transform="translate(12422.998 3683.511)"/>
        <path id="패스_8252" data-name="패스 8252" class="cls-1" d="M-12397.22-3647.775v-21.725l5.521-3.272 5.479 3.272v21.728" transform="translate(12412.219 3672.5)"/>
        <path id="패스_8277" data-name="패스 8277" class="cls-2" d="m-12433.2-3669.5 5 3" transform="translate(12454.202 3674.229)"/>
        <path id="패스_8308" data-name="패스 8308" class="cls-2" d="m-12433.2-3669.5 5 3" transform="translate(12454.202 3678.229)"/>
        <path id="패스_8309" data-name="패스 8309" class="cls-2" d="m-12433.2-3669.5 5 3" transform="translate(12454.202 3682.229)"/>
        <path id="패스_8310" data-name="패스 8310" class="cls-2" d="m-12433.2-3669.5 5 3" transform="translate(12454.202 3686.229)"/>
        <path id="패스_8272" data-name="패스 8272" class="cls-2" d="m-12433.593-3669.453 5 3" transform="translate(12465.593 3683.178)"/>
        <path id="패스_8311" data-name="패스 8311" class="cls-2" d="m-12433.593-3669.453 5 3" transform="translate(12465.593 3687.178)"/>
        <path id="패스_8275" data-name="패스 8275" class="cls-2" d="m-12433.049-3669.487 5 3" transform="translate(12443.049 3677.212)"/>
        <path id="패스_8306" data-name="패스 8306" class="cls-2" d="m-12433.049-3669.487 5 3" transform="translate(12443.049 3681.212)"/>
        <path id="패스_8307" data-name="패스 8307" class="cls-2" d="m-12433.049-3669.487 5 3" transform="translate(12443.049 3685.212)"/>
        <path id="사각형_10321" data-name="사각형 10321" transform="translate(0 24.725)" style="fill:#08554b" d="M0 0h41v2.033H0z"/>
    </g>
</svg>
