<svg xmlns="http://www.w3.org/2000/svg" width="16" height="16" viewBox="0 0 16 16"><defs><style>.a{fill:red;opacity:0;}.b{fill:#d6dbeb;}</style></defs><rect class="a" width="16" height="16"/><path class="b" d="M14,1a1,1,0,0,1,1,1V14a1,1,0,0,1-1,1H2a1,1,0,0,1-1-1V2A1,1,0,0,1,2,1ZM2,0A2,2,0,0,0,0,2V14a2,2,0,0,0,2,2H14a2,2,0,0,0,2-2V2a2,2,0,0,0-2-2Z" transform="translate(0)"/><path class="b" d="M11.7,4.966a.9.9,0,0,1,1.173-.01A.682.682,0,0,1,12.887,6L8.47,10.909a.9.9,0,0,1-1.195.02l-2.926-2.6A.687.687,0,0,1,4.111,7.6a.789.789,0,0,1,.6-.532.9.9,0,0,1,.812.212L7.839,9.342l3.842-4.354.022-.022Z" transform="translate(-0.453 0.052)"/></svg>