<svg xmlns="http://www.w3.org/2000/svg" width="17" height="17" viewBox="0 0 17 17"><defs><style>.a{fill:red;opacity:0;}.b{fill:#4c64f2;}</style></defs><rect class="a" width="17" height="17"/><path class="b" d="M.9,2.641a11.323,11.323,0,0,1,3.06-.806,3.346,3.346,0,0,1,2.81.679v8.8a4.955,4.955,0,0,0-2.9-.445A12.076,12.076,0,0,0,.9,11.6V2.641Zm6.773-.127a3.346,3.346,0,0,1,2.81-.679,11.323,11.323,0,0,1,3.06.806V11.6a12.006,12.006,0,0,0-2.968-.731,4.939,4.939,0,0,0-2.9.444ZM7.224,1.7A4.44,4.44,0,0,0,3.871.936a12.3,12.3,0,0,0-3.607,1A.452.452,0,0,0,0,2.344v9.934a.452.452,0,0,0,.638.411,11.432,11.432,0,0,1,3.323-.921,3.2,3.2,0,0,1,2.911.792.452.452,0,0,0,.7,0,3.2,3.2,0,0,1,2.91-.792,11.422,11.422,0,0,1,3.324.921.452.452,0,0,0,.638-.411V2.344a.452.452,0,0,0-.265-.411,12.3,12.3,0,0,0-3.607-1A4.436,4.436,0,0,0,7.224,1.7Z" transform="translate(1.276 1.105)"/></svg>