<svg xmlns="http://www.w3.org/2000/svg" width="20.019" height="20" viewBox="0 0 20.019 20"><defs><style>.a{fill:red;opacity:0;}.b{fill:#8998a5;}</style></defs><rect class="a" width="20" height="20"/><path class="b" d="M185.544,402.9V390.132h4.507v1.5h-2.678v.751h2.678v1.508h-2.678v.751h2.678v1.5h-2.678v.751h2.678v1.5h-2.678v.751h2.678v1.5h-2.678v.751h2.678v1.5Zm16.522.751v2.677h-.751v-2.682h-1.5v2.677h-.756v-2.677h-1.5v2.677h-.752v-2.677h-1.5v2.677h-.751v-2.677h-1.5v2.677H192.3v-2.677h-1.5v4.507h12.766v-4.507Zm-16.522,4.505h4.507V402.9h-4.507Zm0,0H190.8v-4.51h-5.257Z" transform="translate(-183.549 -389.132)"/></svg>