<svg xmlns="http://www.w3.org/2000/svg" width="632" height="116" viewBox="0 0 632 116"><defs><style>.a,.e{fill:#e7eaf3;}.b,.c,.f,.g{fill:#4c64f2;}.b,.d{opacity:0.395;}.c,.e{stroke:#fff;stroke-width:3px;}.d{fill:#8891af;}.g{stroke:#4c64f2;}.g,.i{stroke-width:2px;}.h,.i{fill:#fff;}.h,.j{font-size:18px;}.h{font-family:SpoqaHanSansNeo-Medium, Spoqa Han Sans Neo;font-weight:500;}.i{stroke:#e7eaf3;}.j{fill:#97a4af;font-family:SpoqaHanSansNeo-Regular, Spoqa Han Sans Neo;}.k{stroke:none;}.l{fill:none;}</style></defs><rect class="a" width="632" height="12" rx="6" transform="translate(0 94)"/><g transform="translate(-201.971 -2484.971)"><circle class="b" cx="16" cy="16" r="16" transform="translate(619.971 2568.971)"/><g class="c" transform="translate(626.971 2575.971)"><circle class="k" cx="9" cy="9" r="9"/><circle class="l" cx="9" cy="9" r="7.5"/></g></g><g transform="translate(-418.971 -2484.971)"><circle class="d" cx="16" cy="16" r="16" transform="translate(619.971 2568.971)"/><g class="e" transform="translate(626.971 2575.971)"><circle class="k" cx="9" cy="9" r="9"/><circle class="l" cx="9" cy="9" r="7.5"/></g></g><g transform="translate(-94 -2915)"><rect class="f" width="2" height="68" transform="translate(527 2947)"/><g class="g" transform="translate(484 2915)"><rect class="k" width="88" height="32" rx="16"/><rect class="l" x="1" y="1" width="86" height="30" rx="15"/></g><text class="h" transform="translate(496 2922)"><tspan x="7.16" y="16">논슬립</tspan></text></g><g transform="translate(-311 -2915)"><rect class="a" width="2" height="68" transform="translate(527 2947)"/><g class="i" transform="translate(484 2915)"><rect class="k" width="88" height="32" rx="16"/><rect class="l" x="1" y="1" width="86" height="30" rx="15"/></g><text class="j" transform="translate(496 2922)"><tspan x="15.44" y="16">슬립</tspan></text></g></svg>