<svg xmlns="http://www.w3.org/2000/svg" width="632" height="116" viewBox="0 0 632 116"><defs><style>.a,.e{fill:#e7eaf3;}.b,.c,.h,.i{fill:#4c64f2;}.b,.d{opacity:0.395;}.c,.e{stroke:#fff;stroke-width:3px;}.d{fill:#8891af;}.f,.j{fill:#fff;}.f{stroke:#e7eaf3;}.f,.i{stroke-width:2px;}.g{fill:#97a4af;font-family:SpoqaHanSansNeo-Regular, Spoqa Han Sans Neo;}.g,.j{font-size:18px;}.i{stroke:#4c64f2;}.j{font-family:SpoqaHanSansNeo-Medium, Spoqa Han Sans Neo;font-weight:500;}.k{stroke:none;}.l{fill:none;}</style></defs><rect class="a" width="632" height="12" rx="6" transform="translate(0 94)"/><g transform="translate(-523.971 -2484.971)"><circle class="b" cx="16" cy="16" r="16" transform="translate(619.971 2568.971)"/><g class="c" transform="translate(626.971 2575.971)"><circle class="k" cx="9" cy="9" r="9"/><circle class="l" cx="9" cy="9" r="7.5"/></g></g><g transform="translate(-387.971 -2484.971)"><circle class="d" cx="16" cy="16" r="16" transform="translate(619.971 2568.971)"/><g class="e" transform="translate(626.971 2575.971)"><circle class="k" cx="9" cy="9" r="9"/><circle class="l" cx="9" cy="9" r="7.5"/></g></g><g transform="translate(-251.971 -2484.971)"><circle class="d" cx="16" cy="16" r="16" transform="translate(619.971 2568.971)"/><g class="e" transform="translate(626.971 2575.971)"><circle class="k" cx="9" cy="9" r="9"/><circle class="l" cx="9" cy="9" r="7.5"/></g></g><g transform="translate(-115.971 -2484.971)"><circle class="d" cx="16" cy="16" r="16" transform="translate(619.971 2568.971)"/><g class="e" transform="translate(626.971 2575.971)"><circle class="k" cx="9" cy="9" r="9"/><circle class="l" cx="9" cy="9" r="7.5"/></g></g><g transform="translate(-280 -2915)"><rect class="a" width="2" height="68" transform="translate(527 2947)"/><g class="f" transform="translate(484 2915)"><rect class="k" width="88" height="32" rx="16"/><rect class="l" x="1" y="1" width="86" height="30" rx="15"/></g><text class="g" transform="translate(496 2922)"><tspan x="7.16" y="16">반무광</tspan></text></g><g transform="translate(-144 -2915)"><rect class="a" width="2" height="68" transform="translate(527 2947)"/><g class="f" transform="translate(484 2915)"><rect class="k" width="88" height="32" rx="16"/><rect class="l" x="1" y="1" width="86" height="30" rx="15"/></g><text class="g" transform="translate(496 2922)"><tspan x="7.16" y="16">반유광</tspan></text></g><g transform="translate(-8 -2915)"><rect class="a" width="2" height="68" transform="translate(527 2947)"/><g class="f" transform="translate(484 2915)"><rect class="k" width="88" height="32" rx="16"/><rect class="l" x="1" y="1" width="86" height="30" rx="15"/></g><text class="g" transform="translate(496 2922)"><tspan x="15.44" y="16">유광</tspan></text></g><g transform="translate(-416 -2915)"><rect class="h" width="2" height="68" transform="translate(527 2947)"/><g class="i" transform="translate(484 2915)"><rect class="k" width="88" height="32" rx="16"/><rect class="l" x="1" y="1" width="86" height="30" rx="15"/></g><text class="j" transform="translate(496 2922)"><tspan x="15.44" y="16">무광</tspan></text></g></svg>