<svg xmlns="http://www.w3.org/2000/svg" width="220" height="128" viewBox="0 0 220 128"><defs><style>.a{fill:red;opacity:0;}.b{opacity:0.22;}.c{fill:#985923;}.d{fill:#dc7115;}.e{fill:#efa36b;}.f{fill:#d26202;}.g{fill:#f38947;}.h{fill:#f59f60;}</style></defs><rect class="a" width="220" height="128"/><g transform="translate(19.228 13.812)"><path class="b" d="M-7110.661-9966.011c2.017.294,102.411-9.318,102.411-9.318l14.381-16.693-14.381-27.553h-5.686v-3.685l3.3-1.155-22.127-18.731-27.632,4.1Z" transform="translate(7187.138 10068.07)"/><path class="c" d="M-7156.917-10027.646l74.434,44.888,75.781-44.888-75.781-28.275Z" transform="translate(7158.295 10059.714)"/><path class="d" d="M-7110.9-9982.758l75.782-44.888-75.782-28.275Z" transform="translate(7186.712 10059.714)"/><path class="e" d="M-7127.708-9985.187l27.186,31.615,75.813-26.707-29.367-31.77Z" transform="translate(7176.303 10012.398)"/><path class="f" d="M-7156.917-10026.343l36.623-4.193,71.753-27.874-36.08,3.848Z" transform="translate(7158.295 10058.41)"/><path class="g" d="M-7110.9-10012.122v42.5l75.812-26.7v-42.111Z" transform="translate(7186.712 10070.51)"/><path class="h" d="M-7035.088-10012.122v42.5l-75.812-26.7v-42.111Z" transform="translate(7110.9 10070.51)"/></g></svg>