<svg xmlns="http://www.w3.org/2000/svg" xmlns:xlink="http://www.w3.org/1999/xlink" width="160" height="160" viewBox="0 0 160 160"><defs><style>.a{fill:#f7fafd;}.b{fill:url(#a);}.c{fill:#3c6cfb;}</style><linearGradient id="a" x1="0.5" x2="0.5" y2="1" gradientUnits="objectBoundingBox"><stop offset="0" stop-color="#1698ff"/><stop offset="0.483" stop-color="#4562fb"/><stop offset="1" stop-color="#7a45fb"/></linearGradient></defs><circle class="a" cx="80" cy="80" r="80"/><path class="b" d="M973.232,415.519V397.9a2.346,2.346,0,0,0-2.344-2.344H918.023a2.346,2.346,0,0,0-2.344,2.344v17.614a2.339,2.339,0,0,0,1.057,1.959l51.808,34.014V465.5H920.367V451.492l8.743-5.739a4.761,4.761,0,1,0-2.586-4.234q0,.16.011.316l-9.8,6.433a2.339,2.339,0,0,0-1.057,1.959v17.614a2.347,2.347,0,0,0,2.344,2.344h52.865a2.347,2.347,0,0,0,2.344-2.344V450.227a2.338,2.338,0,0,0-1.057-1.959l-51.808-34.014V400.249h48.178v14.005L959.9,419.93a4.761,4.761,0,1,0,2.7,4.293,4.358,4.358,0,0,0-.025-.445l9.595-6.3A2.337,2.337,0,0,0,973.232,415.519Z" transform="translate(-864.679 -352.624)"/><circle class="c" cx="3" cy="3" r="3" transform="translate(77 57)"/><circle class="c" cx="3" cy="3" r="3" transform="translate(77 89)"/><circle class="c" cx="3" cy="3" r="3" transform="translate(77 66)"/><circle class="c" cx="3" cy="3" r="3" transform="translate(77 98)"/></svg>