<svg id="ic_apt_logo" xmlns="http://www.w3.org/2000/svg" width="24" height="24" viewBox="0 0 24 24">
    <defs>
        <style>
            .cls-2{fill:#2a534c}
        </style>
    </defs>
    <path id="사각형_10191" data-name="사각형 10191" style="fill:#ffe0dd" d="M0 0h24v24H0z"/>
    <g id="그룹_17129" data-name="그룹 17129" transform="translate(5 5)">
        <circle id="타원_1435" data-name="타원 1435" class="cls-2" cx="1.586" cy="1.586" r="1.586" transform="translate(0 .218)"/>
        <circle id="타원_1436" data-name="타원 1436" class="cls-2" cx="1.586" cy="1.586" r="1.586" transform="translate(0 8.368)"/>
        <path id="패스_8168" data-name="패스 8168" class="cls-2" d="M178.316 170.522a4.079 4.079 0 0 0-2.774 1v-.77h-2.8v15.838h2.892v-5.445a3.768 3.768 0 0 0 2.561.883c2.748 0 4.524-1.905 4.524-4.853V175.3c.004-3.038-1.603-4.778-4.403-4.778zm1.534 5.163v1.215c0 .972-.252 2.6-1.941 2.6a2.208 2.208 0 0 1-2.309-1.883v-2.265a2.086 2.086 0 0 1 2.251-2.29c1.364.004 1.999.838 1.999 2.623z" transform="translate(-167.809 -170.522)"/>
    </g>
</svg>
