<svg xmlns="http://www.w3.org/2000/svg" width="70.19" height="22">
    <g data-name="그룹 17089">
        <path data-name="합치기 16" d="M12.5 15.735c.155 0 .177-.044.243-.177L15.9 4.995c.044-.111-.044-.155-.133-.155h-2.228a.178.178 0 0 0-.2.133c-1.282 4.707-1.613 6.917-1.878 8.243h-.044c-.177-.884-.486-2.851-1.856-8.243a.154.154 0 0 0-.177-.133H6.843c-.155 0-.177.044-.2.177-1.459 5.348-1.834 7.359-2.011 8.133h-.044c-.155-.884-.486-2.983-1.812-8.177-.022-.111-.066-.133-.176-.133H.168c-.133 0-.2.066-.155.177l2.874 10.541c.044.133.066.177.287.177h2.409a.219.219 0 0 0 .243-.177c1.039-3.669 1.591-5.79 2.1-8h.022c.221 1.083.6 3.05 1.878 7.978.044.133.088.2.243.2zm7.094-8.022a3.135 3.135 0 0 1 2.122-.773c1.282 0 1.923.84 1.923 2.32v6.276a.176.176 0 0 0 .2.2h2.3c.11 0 .177-.044.177-.2V8.995c0-3.536-2.011-4.376-3.691-4.376a4.846 4.846 0 0 0-3.028 1.017V.155c0-.111-.022-.155-.155-.155H17.1c-.133 0-.177.066-.177.155v15.4c0 .111.044.177.177.177h2.343c.133 0 .155-.044.155-.155zm14.453 5.879a4.04 4.04 0 0 1-1.569.265c-1.591 0-2.166-.707-2.166-1.525 0-.95.773-1.525 2.519-1.525a9.092 9.092 0 0 1 1.215.066zm2.586-4.6a4.011 4.011 0 0 0-4.4-4.376 8.211 8.211 0 0 0-3.359.663.21.21 0 0 0-.133.221v1.926a.129.129 0 0 0 .177.133 6.574 6.574 0 0 1 2.9-.619c1.945 0 2.232 1.149 2.232 1.657v.265c-.2-.022-.707-.044-1.37-.044-2.873 0-4.972 1.171-4.972 3.514 0 2.5 1.923 3.624 4.332 3.624a10.749 10.749 0 0 0 4.6-.994c.044-.022.044-.044.044-.088-.044-.464-.044-.906-.044-1.392zm4.022-.155A1.526 1.526 0 0 0 42.29 7.18a1.561 1.561 0 0 0-1.635-1.613 1.543 1.543 0 0 0-1.613 1.613 1.532 1.532 0 0 0 1.613 1.66zm0 7.116a1.526 1.526 0 0 0 1.636-1.653 1.579 1.579 0 0 0-1.635-1.635 1.561 1.561 0 0 0-1.614 1.635 1.532 1.532 0 0 0 1.613 1.656zm8.266-11.334a13.49 13.49 0 0 0-4.464.884.1.1 0 0 0-.088.11c.044.309.066 1.039.066 1.3v13.242c0 .11.022.133.155.133.111 0 1.591-.133 2.365-.221.133-.022.155-.088.155-.177v-3.978a5.88 5.88 0 0 0 .663.044c3.337 0 6.608-1.989 6.608-6.033a5.071 5.071 0 0 0-5.46-5.304zM48.678 6.9c1.878 0 2.961 1.193 2.961 3.2a3.428 3.428 0 0 1-3.646 3.6 3.782 3.782 0 0 1-.884-.066V7.116a4.987 4.987 0 0 1 1.569-.216zm7.138 6.21c0 2.32 1.149 2.851 2.564 2.851a3.222 3.222 0 0 0 1.26-.177c.111-.066.133-.088.133-.243v-1.662c0-.11-.022-.155-.088-.133a2.818 2.818 0 0 1-.42.022c-.53 0-.773-.221-.773-.906V.177c0-.111-.066-.177-.2-.177h-2.277c-.133 0-.2.066-.2.177zm11.691-2.21a16.833 16.833 0 0 0 2.276-.088.19.19 0 0 0 .177-.155 6.689 6.689 0 0 0 .088-1.37 4.394 4.394 0 0 0-4.53-4.663c-3.337 0-5.193 2.718-5.193 5.79 0 2.718 1.436 5.547 5.459 5.547a7.338 7.338 0 0 0 3.315-.641.234.234 0 0 0 .133-.243v-1.839c0-.111-.066-.133-.133-.088a6.964 6.964 0 0 1-2.74.53c-2.254 0-3.271-1.238-3.337-2.785zM63.021 9a2.414 2.414 0 0 1 2.386-2.26 2.044 2.044 0 0 1 2.122 2.06v.177a10.832 10.832 0 0 1-1.215.022z" transform="translate(.017 .818)" style="fill:#fff"/>
    </g>
</svg>
