<svg xmlns="http://www.w3.org/2000/svg" width="160" height="48" viewBox="0 0 160 48"><defs><style>.a{fill:red;opacity:0;}.b{fill:#091627;}.c{fill:#4c64f2;}</style></defs><rect class="a" width="160" height="48"/><g transform="translate(39.241 16.517)"><g transform="translate(0)"><path class="b" d="M149.981,528.006h-9.565v2.379H147.7a26.679,26.679,0,0,1-.209,3.527h-7.073v2.379H147a7.075,7.075,0,0,1-.828,1.866,13.373,13.373,0,0,1-6.123,4.575v.017l.949,2.573a20.078,20.078,0,0,0,6.627-4.4,14.507,14.507,0,0,0,3.2-9.266v-3.648Z" transform="translate(-140.049 -528.006)"/><path class="b" d="M156.18,547.47h-3.171V537.119h-2.864v-2.372h2.864v-6.737h3.171Z" transform="translate(-138.751 -528.006)"/></g><g transform="translate(40.461 0)"><rect class="b" width="14.855" height="2.369" transform="translate(1.398)"/><path class="b" d="M180.224,537.008v-2.985h11.682v-2.368H177.778v0h-.7v7.719h14.912v-2.369Z" transform="translate(-175.748 -527.537)"/><path class="b" d="M193.488,543.666H175.9V541.3h17.588Z" transform="translate(-175.9 -526.296)"/></g><g transform="translate(60.299 0.003)"><path class="b" d="M211.065,543.666H193.477V541.3h17.588Z" transform="translate(-193.477 -526.3)"/><path class="b" d="M209.536,539.839H194.694v-11.83h3.17v3.267h8.5v-3.267h3.17Zm-3.17-2.36v-3.814h-8.5v3.814Z" transform="translate(-193.321 -528.009)"/></g><g transform="translate(21.073)"><path class="b" d="M167.717,539.782H170.9V528.006h-3.182v3.047h-3.69v2.363h3.69Z" transform="translate(-158.039 -528.006)"/><path class="b" d="M158.724,541.782h13.77V546h3.17v-6.586H158.724Z" transform="translate(-158.721 -526.539)"/><path class="b" d="M167.289,538.987l-.471-2.72a28.944,28.944,0,0,1-3.592.228H161.87v-8.489h-3.149v11.277h3.554A48.228,48.228,0,0,0,167.289,538.987Z" transform="translate(-158.721 -528.006)"/></g><rect class="b" width="3.182" height="11.775" transform="translate(34.844 0)"/><rect class="b" width="3.17" height="11.775" transform="translate(34.846 0)"/><g transform="translate(80.39 0)"><path class="b" d="M211.311,539.417v2.365h13.77V546h3.171v-6.586Z" transform="translate(-211.275 -526.539)"/><path class="b" d="M222.33,536.729a54.447,54.447,0,0,1-7.089.311h-.747v-2h6.8v-7.028H211.279v2.62h6.87v1.883h-6.825v7.147h3.712a50.85,50.85,0,0,0,7.734-.388Z" transform="translate(-211.279 -528.005)"/><rect class="b" width="3.17" height="11.775" transform="translate(13.798)"/></g></g><g transform="translate(0 8.868)"><path class="c" d="M112.213,537.442l3.729-3.254h3.921a3.287,3.287,0,1,0,0-2.879H115.4a1.438,1.438,0,0,0-.947.356l-4.628,4.039a1.437,1.437,0,0,0-.493,1.084v9.055a1.441,1.441,0,0,0,1.439,1.439h25.5V544.4H112.213Zm9.576-4.693a1.015,1.015,0,1,1,1.015,1.015A1.017,1.017,0,0,1,121.789,532.749Z" transform="translate(-104.101 -520.17)"/><path class="c" d="M136.394,534.418l-14.48-12.961a1.454,1.454,0,0,0-1.88-.04L105.218,533.6a1.422,1.422,0,0,0-.521,1.1v13.5h2.879V535.376l13.336-10.966,13.08,11.708v2.729H121.471a3.274,3.274,0,1,0-3.74,4.593,3.36,3.36,0,0,0,.8.1,3.29,3.29,0,0,0,1.685-.467,3.25,3.25,0,0,0,1.257-1.362h13.954a1.437,1.437,0,0,0,1.44-1.431v-4.8A1.427,1.427,0,0,0,136.394,534.418Zm-16.879,6.1a1.007,1.007,0,0,1-.463.62,1.027,1.027,0,0,1-.77.114,1.014,1.014,0,0,1-.623-.461,1.006,1.006,0,0,1,.348-1.384,1.012,1.012,0,0,1,.52-.145,1.069,1.069,0,0,1,.249.03A1.012,1.012,0,0,1,119.514,540.515Z" transform="translate(-104.697 -521.091)"/></g></svg>