<svg xmlns="http://www.w3.org/2000/svg" width="33" height="32" viewBox="0 0 33 32"><defs><style>.a{fill:red;opacity:0;}.b{fill:none;stroke-miterlimit:10;}.c,.d{stroke:none;}.d{fill:#8998a5;}</style></defs><rect class="a" width="33" height="32"/><g class="b" transform="translate(-91 -56)"><path class="c" d="M116.875,62A3,3,0,0,1,120,64.733V83.121a.793.793,0,0,1-.781.879.812.812,0,0,1-.553-.212l-4.458-4.28a1.63,1.63,0,0,0-1.105-.423H98.125A3.015,3.015,0,0,1,95,76.194V64.89A3.014,3.014,0,0,1,98.125,62Z"/><path class="d" d="M 98.125 64 C 97.51519012451172 64 97 64.40756988525391 97 64.88999938964844 L 97 76.19400024414062 C 97 76.67697143554688 97.51519012451172 77.08499908447266 98.125 77.08499908447266 L 113.1029968261719 77.08499908447266 C 114.0256500244141 77.08499908447266 114.9003601074219 77.424072265625 115.5660171508789 78.03974151611328 L 115.5796890258789 78.05238342285156 L 115.5931167602539 78.06527709960938 L 118 80.37606048583984 L 118 64.73300170898438 C 118 64.4813232421875 117.5618896484375 64 116.875 64 L 98.125 64 M 98.125 62 L 116.875 62 C 118.6009979248047 62 120 63.29399871826172 120 64.73300170898438 L 120 83.12100219726562 C 120 83.677001953125 119.6500015258789 84 119.2190017700195 84 C 119.0110015869141 84 118.8119964599609 83.92399597167969 118.6660003662109 83.78799438476562 L 114.2080001831055 79.50800323486328 C 113.9150009155273 79.23699951171875 113.5169982910156 79.08499908447266 113.1029968261719 79.08499908447266 L 98.125 79.08499908447266 C 96.39900207519531 79.08499908447266 95 77.79100036621094 95 76.19400024414062 L 95 64.88999938964844 C 95 63.29399871826172 96.39900207519531 62 98.125 62 Z"/></g></svg>