<svg xmlns="http://www.w3.org/2000/svg" width="24" height="24" viewBox="0 0 24 24"><defs><style>.a{fill:red;opacity:0;}.b{fill:#4c64f2;}</style></defs><rect class="a" width="24" height="24"/><path class="b" d="M11,11A4.5,4.5,0,1,0,6.5,6.5,4.5,4.5,0,0,0,11,11Zm3-4.5a3,3,0,1,1-3-3,3,3,0,0,1,3,3Zm6,12A1.469,1.469,0,0,1,18.5,20H3.5A1.469,1.469,0,0,1,2,18.5c0-1.5,1.5-6,9-6S20,17,20,18.5Zm-1.5-.006A4.008,4.008,0,0,0,17.252,16c-.978-.978-2.819-2-6.252-2s-5.274,1.02-6.252,2a4.016,4.016,0,0,0-1.248,2.5Z" transform="translate(1 1)"/></svg>