<svg id="ic_check_box_d" xmlns="http://www.w3.org/2000/svg" width="24" height="24" viewBox="0 0 24 24">
  <path id="패스_38704" data-name="패스 38704" d="M0,0H24V24H0Z" fill="none"/>
  <g id="패스_38705" data-name="패스 38705" fill="none">
    <path d="M19,3H5A2,2,0,0,0,3,5V19a2,2,0,0,0,2,2H19a2,2,0,0,0,2-2V5A2,2,0,0,0,19,3Z" stroke="none"/>
    <path d="M 5 5 L 5.00139045715332 19 L 19 19 L 18.99860954284668 5 L 5 5 M 5 3 L 19 3 C 20.11000061035156 3 21 3.899999618530273 21 5 L 21 19 C 21 20.10000038146973 20.11000061035156 21 19 21 L 5 21 C 3.889999389648438 21 3 20.10000038146973 3 19 L 3 5 C 3 3.899999618530273 3.889999389648438 3 5 3 Z" stroke="none" fill="#ececec"/>
  </g>
</svg>
