<svg xmlns="http://www.w3.org/2000/svg" width="32" height="32" viewBox="0 0 32 32">
    <path d="M17.718 1.312a1.968 1.968 0 1 0 1.969 1.968 1.969 1.969 0 0 0-1.969-1.968zm-3.281 1.969a3.281 3.281 0 1 1 .791 2.136L6.411 9.511a3.279 3.279 0 0 1 0 1.974l8.817 4.094a3.28 3.28 0 1 1-.64 1.15l-8.817-4.094a3.281 3.281 0 1 1 0-4.273l8.817-4.094a3.28 3.28 0 0 1-.151-.987zM3.281 8.53A1.968 1.968 0 1 0 5.25 10.5a1.969 1.969 0 0 0-1.969-1.97zm14.437 7.217a1.968 1.968 0 1 0 1.969 1.968 1.969 1.969 0 0 0-1.969-1.968z" transform="translate(5 5.5)" style="fill:#ffe0dd;stroke:#ffe0dd;stroke-width:.5px"/>
</svg>
