<svg xmlns="http://www.w3.org/2000/svg" width="32" height="32" viewBox="0 0 32 32">
    <path d="M18.562 1.375a2.062 2.062 0 1 0 2.062 2.062 2.062 2.062 0 0 0-2.062-2.062zm-3.437 2.062a3.437 3.437 0 1 1 .829 2.238L6.717 9.964a3.435 3.435 0 0 1 0 2.068l9.237 4.289a3.437 3.437 0 1 1-.671 1.2l-9.237-4.285a3.437 3.437 0 1 1 0-4.476l9.237-4.289a3.436 3.436 0 0 1-.158-1.034zM3.438 8.936A2.062 2.062 0 1 0 5.5 11a2.062 2.062 0 0 0-2.062-2.064zM18.562 16.5a2.062 2.062 0 1 0 2.062 2.062 2.062 2.062 0 0 0-2.062-2.062z" transform="translate(4 5.099)" style="fill:#9a9a9a"/>
</svg>
