<svg id="ic_logo_cnt_sm" xmlns="http://www.w3.org/2000/svg" width="74" height="25" viewBox="0 0 74 25">
  <g id="그룹_17133" data-name="그룹 17133" transform="translate(-121.85 -162.75)">
    <circle id="타원_1435" data-name="타원 1435" cx="1.631" cy="1.631" r="1.631" transform="translate(163.673 170.471)" fill="#2a534c"/>
    <circle id="타원_1436" data-name="타원 1436" cx="1.631" cy="1.631" r="1.631" transform="translate(163.673 178.838)" fill="#2a534c"/>
    <path id="패스_8166" data-name="패스 8166" d="M146.3,170.266a4.094,4.094,0,0,0-3.051,1.131V166.75h-2.835v15.379h2.974v-6.913a2.018,2.018,0,0,1,2.135-2.294c1.284,0,1.858.67,1.858,2.175v7.031h2.974V174.56C150.356,171.393,148.261,170.266,146.3,170.266Z" transform="translate(-1.626)" fill="#2a534c"/>
    <path id="패스_8167" data-name="패스 8167" d="M158.08,170.542a7.576,7.576,0,0,0-4.492,1.515l-.188.131,1.5,2.229.2-.155a4.648,4.648,0,0,1,2.961-1.045c1.237,0,1.718.47,1.718,1.678v.186H157.5c-3.614,0-4.373,1.826-4.373,3.358v.637c0,2.065,1.479,3.3,3.956,3.3A4.443,4.443,0,0,0,160,181.322l.026.871h2.709v-7.914C162.732,172.009,160.906,170.542,158.08,170.542Zm1.7,6.955v.066c0,.8,0,1.194-.389,1.567a2.745,2.745,0,0,1-2.105.668c-.574,0-1.259-.157-1.259-.9v-.238c0-.574.183-1.161,1.539-1.161Z" transform="translate(-2.557 -0.274)" fill="#2a534c"/>
    <path id="패스_8168" data-name="패스 8168" d="M178.473,170.522a4.2,4.2,0,0,0-2.853,1.03v-.791h-2.874v16.285h2.974v-5.6a3.874,3.874,0,0,0,2.633.908c2.826,0,4.652-1.959,4.652-4.99v-1.931C183,172.312,181.353,170.522,178.473,170.522Zm1.578,5.309v1.254c0,1-.259,2.674-2,2.674a2.27,2.27,0,0,1-2.374-1.937v-2.329A2.145,2.145,0,0,1,178,173.138C179.4,173.138,180.051,173.994,180.051,175.831Z" transform="translate(-3.997 -0.295)" fill="#2a534c"/>
    <rect id="사각형_10023" data-name="사각형 10023" width="2.974" height="15.379" transform="translate(180.814 166.75)" fill="#2a534c"/>
    <path id="패스_8169" data-name="패스 8169" d="M201.174,175.572a4.676,4.676,0,0,0-5.03-5.05c-3.274,0-5.229,2-5.229,5.349v1.134c0,3.4,1.913,5.349,5.249,5.349a8.008,8.008,0,0,0,4.629-1.214l.178-.122-1.258-2.2-.2.118a5.824,5.824,0,0,1-3.207.864,2.136,2.136,0,0,1-2.468-2.181h7.339Zm-7.344-.312v-.185a1.993,1.993,0,0,1,2.274-2.017c1.911,0,2.2,1.226,2.2,1.956v.245Z" transform="translate(-5.328 -0.273)" fill="#2a534c"/>
    <path id="패스_8170" data-name="패스 8170" d="M134.2,170.5l-1.576,8.1-1.7-8.1h-2.7l-1.789,8.091-1.45-8.091h-3.13l2.79,11.886h3.249l1.632-7.369,1.614,7.369h3.249l2.77-11.886Z" transform="translate(0 -0.271)" fill="#2a534c"/>
  </g>
  <rect id="guidebox" width="74" height="25" fill="red" opacity="0"/>
</svg>
