<svg id="ic_logo_cnt" xmlns="http://www.w3.org/2000/svg" width="150" height="48" viewBox="0 0 150 48">
  <rect id="guidebox" width="150" height="48" fill="red" opacity="0"/>
  <g id="그룹_17129" data-name="그룹 17129" transform="translate(-121.85 -152.75)">
    <circle id="타원_1435" data-name="타원 1435" cx="1.955" cy="1.955" r="1.955" transform="translate(171.973 171.217)" fill="#2a534c"/>
    <circle id="타원_1436" data-name="타원 1436" cx="1.955" cy="1.955" r="1.955" transform="translate(171.973 181.26)" fill="#2a534c"/>
    <path id="패스_8166" data-name="패스 8166" d="M147.469,170.963a4.907,4.907,0,0,0-3.656,1.356V166.75h-3.4v18.431h3.564V176.9a2.418,2.418,0,0,1,2.559-2.749c1.539,0,2.226.8,2.226,2.607v8.427h3.564v-9.071C152.329,172.315,149.818,170.963,147.469,170.963Z" transform="translate(1.735 0)" fill="#2a534c"/>
    <path id="패스_8167" data-name="패스 8167" d="M159.063,170.542a9.08,9.08,0,0,0-5.384,1.815l-.226.157,1.8,2.672.236-.185a5.57,5.57,0,0,1,3.549-1.252c1.482,0,2.059.563,2.059,2.011v.222H158.37c-4.332,0-5.241,2.188-5.241,4.025v.763c0,2.475,1.773,3.953,4.741,3.953a5.325,5.325,0,0,0,3.491-1.261l.031,1.043h3.246V175.02C164.638,172.3,162.449,170.542,159.063,170.542Zm2.034,8.335v.079c0,.953,0,1.431-.466,1.878a3.29,3.29,0,0,1-2.523.8c-.688,0-1.509-.188-1.509-1.081v-.285c0-.688.219-1.392,1.844-1.392Z" transform="translate(3.143 0.437)" fill="#2a534c"/>
    <path id="패스_8168" data-name="패스 8168" d="M179.61,170.522a5.027,5.027,0,0,0-3.419,1.234v-.948h-3.445v19.516h3.564v-6.71a4.643,4.643,0,0,0,3.156,1.088c3.387,0,5.575-2.348,5.575-5.98v-2.314C185.041,172.667,183.062,170.522,179.61,170.522Zm1.891,6.362v1.5c0,1.2-.311,3.2-2.393,3.2a2.72,2.72,0,0,1-2.845-2.321v-2.791a2.571,2.571,0,0,1,2.774-2.822C180.718,173.657,181.5,174.683,181.5,176.884Z" transform="translate(5.311 0.426)" fill="#2a534c"/>
    <rect id="사각형_10023" data-name="사각형 10023" width="3.564" height="18.431" transform="translate(192.515 166.75)" fill="#2a534c"/>
    <path id="패스_8169" data-name="패스 8169" d="M203.21,176.574c0-3.733-2.31-6.052-6.029-6.052-3.924,0-6.266,2.4-6.266,6.41v1.359c0,4.074,2.293,6.411,6.291,6.411a9.6,9.6,0,0,0,5.548-1.455l.213-.146-1.508-2.639-.244.142a6.979,6.979,0,0,1-3.844,1.035c-1.87,0-2.864-.879-2.958-2.614h8.8Zm-8.8-.374v-.221c0-1.168.716-2.417,2.725-2.417,2.29,0,2.632,1.469,2.632,2.345v.294Z" transform="translate(7.321 0.435)" fill="#2a534c"/>
    <path id="패스_8170" data-name="패스 8170" d="M136.653,170.5l-1.889,9.709-2.04-9.709h-3.241l-2.144,9.7-1.738-9.7H121.85l3.343,14.245h3.894l1.955-8.831,1.934,8.831h3.894l3.32-14.245Z" transform="translate(0 0.432)" fill="#2a534c"/>
  </g>
</svg>
