<svg xmlns="http://www.w3.org/2000/svg" width="225" height="68" viewBox="0 0 225 68"><defs><style>.a{fill:red;opacity:0;}.b{fill:#fff;}.c{fill:#4c64f2;}</style></defs><rect class="a" width="225" height="68"/><g transform="translate(55.256 25.076)"><g transform="translate(0)"><path class="b" d="M154.034,528.006H140.565v3.35h10.254a37.564,37.564,0,0,1-.294,4.966h-9.96v3.35h9.271a9.962,9.962,0,0,1-1.166,2.628c-3.012,4.537-8.621,6.442-8.621,6.442v.024l1.336,3.623c2.215-.968,6.7-3.178,9.332-6.2,4-4.6,4.5-10.541,4.5-13.048v-5.136Z" transform="translate(-140.049 -528.006)"/><path class="b" d="M158.643,555.412h-4.466V540.837h-4.033V537.5h4.033v-9.487h4.466Z" transform="translate(-134.101 -528.004)"/></g><g transform="translate(56.975 0)"><rect class="b" width="20.917" height="3.336" transform="translate(1.969)"/><path class="b" d="M181.506,539.193v-4.2h16.45v-3.335H178.062v0h-.979v10.87h21v-3.336Z" transform="translate(-175.203 -525.856)"/><path class="b" d="M200.666,544.631H175.9V541.3h24.766Z" transform="translate(-175.9 -520.172)"/></g><g transform="translate(84.908 0.005)"><path class="b" d="M218.243,544.631H193.477V541.3h24.766Z" transform="translate(-193.477 -520.177)"/><path class="b" d="M215.594,544.667h-20.9V528.009h4.464v4.6H211.13v-4.6h4.464Zm-4.464-3.323v-5.37H199.158v5.37Z" transform="translate(-192.76 -528.009)"/></g><g transform="translate(29.674)"><path class="b" d="M169.223,544.588h4.48V528.006h-4.48V532.3h-5.2v3.327h5.2Z" transform="translate(-155.595 -528.006)"/><path class="b" d="M158.724,542.747h19.39v5.944h4.464v-9.274H158.724Z" transform="translate(-158.719 -521.283)"/><path class="b" d="M170.786,543.469l-.663-3.83a40.762,40.762,0,0,1-5.058.321h-1.91V528.006h-4.434v15.879h5A67.911,67.911,0,0,0,170.786,543.469Z" transform="translate(-158.721 -528.006)"/></g><rect class="b" width="4.48" height="16.581" transform="translate(49.064 0)"/><rect class="b" width="4.464" height="16.581" transform="translate(49.068 0)"/><g transform="translate(113.199 0)"><path class="b" d="M211.311,539.417v3.33H230.7v5.944h4.465v-9.274Z" transform="translate(-211.26 -521.283)"/><path class="b" d="M226.84,540.287a76.676,76.676,0,0,1-9.982.439h-1.052v-2.818h9.578v-9.9H211.279v3.69h9.673v2.651h-9.61v10.064h5.227a71.6,71.6,0,0,0,10.891-.547Z" transform="translate(-211.279 -528.003)"/><rect class="b" width="4.464" height="16.581" transform="translate(19.429)"/></g></g><g transform="translate(0 14.306)"><path class="c" d="M113.388,540.7l5.251-4.582h5.521a4.629,4.629,0,1,0,0-4.054h-6.281a2.025,2.025,0,0,0-1.333.5l-6.517,5.687a2.023,2.023,0,0,0-.694,1.527v12.75a2.029,2.029,0,0,0,2.026,2.026h35.91V550.5H113.388Zm13.484-6.608a1.429,1.429,0,1,1,1.429,1.429A1.432,1.432,0,0,1,126.872,534.091Z" transform="translate(-101.965 -516.378)"/><path class="c" d="M149.33,539.856l-20.389-18.25a2.047,2.047,0,0,0-2.648-.057L105.431,538.7a2,2,0,0,0-.734,1.553v19.012h4.054V541.206l18.778-15.441,18.419,16.487v3.843H128.317a4.611,4.611,0,1,0-5.267,6.468,4.734,4.734,0,0,0,1.131.139,4.633,4.633,0,0,0,2.373-.657,4.576,4.576,0,0,0,1.77-1.918h19.649A2.023,2.023,0,0,0,150,548.111v-6.757A2.01,2.01,0,0,0,149.33,539.856Zm-23.768,8.585a1.419,1.419,0,0,1-.652.874,1.447,1.447,0,0,1-1.084.16,1.427,1.427,0,0,1-.877-.648,1.416,1.416,0,0,1,.489-1.948,1.425,1.425,0,0,1,.733-.2,1.509,1.509,0,0,1,.351.043A1.425,1.425,0,0,1,125.562,548.442Z" transform="translate(-104.697 -521.091)"/></g></svg>