<svg xmlns="http://www.w3.org/2000/svg" width="48" height="48" viewBox="0 0 48 48"><defs><style>.a{fill:red;opacity:0;}.b,.c,.e,.g{fill:none;}.b,.c,.e{stroke:#9a9a9a;stroke-width:2px;}.b,.e{stroke-linejoin:round;}.c{stroke-miterlimit:10;}.d{fill:#9a9a9a;}.e{stroke-linecap:round;}.f{stroke:none;}</style></defs><rect class="a" width="48" height="48"/><g class="b"><circle class="f" cx="24" cy="24" r="24"/><circle class="g" cx="24" cy="24" r="23"/></g><g class="c" transform="translate(10 10)"><rect class="f" width="28" height="28" rx="2"/><rect class="g" x="1" y="1" width="26" height="26" rx="1"/></g><path class="d" d="M103,420a5.122,5.122,0,0,1-3,3,5.122,5.122,0,0,1,3,3,5.122,5.122,0,0,1,3-3A5.122,5.122,0,0,1,103,420Z" transform="translate(-72 -400)"/><path class="d" d="M97,424a5.122,5.122,0,0,1-3,3,5.122,5.122,0,0,1,3,3,5.122,5.122,0,0,1,3-3A5.122,5.122,0,0,1,97,424Z" transform="translate(-72 -400)"/><path class="d" d="M102,428a3.415,3.415,0,0,1-2,2,3.415,3.415,0,0,1,2,2,3.415,3.415,0,0,1,2-2A3.415,3.415,0,0,1,102,428Z" transform="translate(-72 -400)"/><line class="e" x1="4" y2="4" transform="translate(15 15)"/><line class="e" x1="8" y2="8" transform="translate(16 16)"/></svg>