<svg xmlns="http://www.w3.org/2000/svg" width="24" height="24" viewBox="0 0 24 24"><defs><style>.a{fill:red;opacity:0;}.b,.c,.e,.g{fill:none;}.b{stroke:#8998a5;}.b,.e{stroke-linejoin:round;}.c,.e{stroke:#8b97a3;}.c{stroke-miterlimit:10;}.d{fill:#8b97a3;}.e{stroke-linecap:round;}.f{stroke:none;}</style></defs><rect class="a" width="24" height="24"/><g class="b"><circle class="f" cx="12" cy="12" r="12"/><circle class="g" cx="12" cy="12" r="11.5"/></g><g class="c" transform="translate(5 5)"><rect class="f" width="14" height="14" rx="2"/><rect class="g" x="0.5" y="0.5" width="13" height="13" rx="1.5"/></g><path class="d" d="M62.5,243a2.561,2.561,0,0,1-1.5,1.5,2.561,2.561,0,0,1,1.5,1.5,2.561,2.561,0,0,1,1.5-1.5A2.561,2.561,0,0,1,62.5,243Z" transform="translate(-47 -233)"/><path class="d" d="M59.5,245a2.561,2.561,0,0,1-1.5,1.5,2.561,2.561,0,0,1,1.5,1.5,2.561,2.561,0,0,1,1.5-1.5A2.561,2.561,0,0,1,59.5,245Z" transform="translate(-47 -233)"/><path class="d" d="M62,247a1.707,1.707,0,0,1-1,1,1.707,1.707,0,0,1,1,1,1.707,1.707,0,0,1,1-1A1.707,1.707,0,0,1,62,247Z" transform="translate(-47 -233)"/><line class="e" x1="2" y2="2" transform="translate(7.5 7.5)"/><line class="e" x1="4" y2="4" transform="translate(8 8)"/></svg>