<svg xmlns="http://www.w3.org/2000/svg" width="24.176" height="24.176" viewBox="0 0 24.176 24.176"><defs><style>.a{fill:red;opacity:0;}.b,.d,.f{fill:none;}.b,.d{stroke:#8998a5;stroke-linejoin:round;}.c{opacity:0.5;}.d{stroke-linecap:round;}.e{stroke:none;}</style></defs><rect class="a" width="24" height="24" transform="translate(0 0.176) rotate(-0.421)"/><g class="b" transform="translate(1.007 1.169) rotate(-0.421)"><rect class="e" width="22" height="22" rx="2"/><rect class="f" x="0.5" y="0.5" width="21" height="21" rx="1.5"/></g><g class="c" transform="translate(-158.912 -296.912)"><path class="d" d="M168.474,305.518l-.005-.787a3.212,3.212,0,0,1,3.189-3.236l1.574-.012a3.213,3.213,0,0,1,3.236,3.19l.08,10.786"/><path class="d" d="M165,309.544a3.5,3.5,0,1,1,7-.051Z"/><line class="d" y2="4" transform="translate(165.5 311.5)"/><line class="d" y2="4" transform="translate(167.5 311.5)"/><line class="d" y2="4" transform="translate(169.5 311.5)"/><line class="d" x2="0.029" y2="4" transform="translate(171.518 311.496)"/></g><line class="d" x2="19.139" y2="18.86" transform="translate(2.519 2.659)"/><line class="d" x1="18.86" y2="19.139" transform="translate(2.658 2.519)"/></svg>