<svg xmlns="http://www.w3.org/2000/svg" width="24" height="24" viewBox="0 0 24 24"><defs><style>.a{fill:red;opacity:0;}.b,.c,.f{fill:none;}.b{stroke:#8998a5;stroke-linejoin:round;}.c{stroke:#8b97a3;stroke-miterlimit:10;}.d{fill:#8b97a3;}.e{stroke:none;}</style></defs><rect class="a" width="24" height="24"/><g class="b"><circle class="e" cx="12" cy="12" r="12"/><circle class="f" cx="12" cy="12" r="11.5"/></g><g class="c" transform="translate(5 5)"><rect class="e" width="14" height="14" rx="2"/><rect class="f" x="0.5" y="0.5" width="13" height="13" rx="1.5"/></g><g transform="translate(-47 -200)"><rect class="d" width="1" height="1" transform="translate(56 207.293) rotate(45)"/><rect class="d" width="1" height="1" transform="translate(59 207.293) rotate(45)"/><rect class="d" width="1" height="1" transform="translate(57.5 209.293) rotate(45)"/><rect class="d" width="1" height="1" transform="translate(54.5 209.293) rotate(45)"/><rect class="d" width="1" height="1" transform="translate(60.5 209.293) rotate(45)"/><rect class="d" width="1" height="1" transform="translate(57.5 213.293) rotate(45)"/><rect class="d" width="1" height="1" transform="translate(54.5 213.293) rotate(45)"/><rect class="d" width="1" height="1" transform="translate(60.5 213.293) rotate(45)"/><rect class="d" width="1" height="1" transform="translate(63.5 213.293) rotate(45)"/><rect class="d" width="1" height="1" transform="translate(62 207.293) rotate(45)"/><rect class="d" width="1" height="1" transform="translate(56 215.293) rotate(45)"/><rect class="d" width="1" height="1" transform="translate(59 215.293) rotate(45)"/><rect class="d" width="1" height="1" transform="translate(62 215.293) rotate(45)"/><rect class="d" width="1" height="1" transform="translate(56 211.293) rotate(45)"/><rect class="d" width="1" height="1" transform="translate(59 211.293) rotate(45)"/><rect class="d" width="1" height="1" transform="translate(62 211.293) rotate(45)"/><rect class="d" width="1" height="1" transform="translate(63.5 209.293) rotate(45)"/></g></svg>