<svg xmlns="http://www.w3.org/2000/svg" width="48" height="48" viewBox="0 0 48 48"><defs><style>.a{fill:red;opacity:0;}.b,.c,.f{fill:none;}.b{stroke:#9a9a9a;stroke-linejoin:round;stroke-width:2px;}.d{fill:#9a9a9a;}.e,.g{stroke:none;}.g{fill:#9a9a9a;}</style></defs><rect class="a" width="48" height="48"/><g class="b"><circle class="e" cx="24" cy="24" r="24"/><circle class="f" cx="24" cy="24" r="23"/></g><g class="c" transform="translate(10 10)"><path class="e" d="M2,0H26a2,2,0,0,1,2,2V26a2,2,0,0,1-2,2H2a2,2,0,0,1-2-2V2A2,2,0,0,1,2,0Z"/><path class="g" d="M 2 2 L 2 26 L 26 26 L 26 2 L 2 2 M 2 0 L 26 0 C 27.10457038879395 0 28 0.8954296112060547 28 2 L 28 26 C 28 27.10457038879395 27.10457038879395 28 26 28 L 2 28 C 0.8954296112060547 28 0 27.10457038879395 0 26 L 0 2 C 0 0.8954296112060547 0.8954296112060547 0 2 0 Z"/></g><g transform="translate(-72 -348)"><rect class="d" width="2" height="2" transform="translate(90 362.586) rotate(45)"/><rect class="d" width="2" height="2" transform="translate(96 362.586) rotate(45)"/><rect class="d" width="2" height="2" transform="translate(93 366.586) rotate(45)"/><rect class="d" width="2" height="2" transform="translate(87 366.586) rotate(45)"/><rect class="d" width="2" height="2" transform="translate(99 366.586) rotate(45)"/><rect class="d" width="2" height="2" transform="translate(93 374.586) rotate(45)"/><rect class="d" width="2" height="2" transform="translate(87 374.586) rotate(45)"/><rect class="d" width="2" height="2" transform="translate(99 374.586) rotate(45)"/><rect class="d" width="2" height="2" transform="translate(105 374.586) rotate(45)"/><rect class="d" width="2" height="2" transform="translate(102 362.586) rotate(45)"/><rect class="d" width="2" height="2" transform="translate(90 378.586) rotate(45)"/><rect class="d" width="2" height="2" transform="translate(96 378.586) rotate(45)"/><rect class="d" width="2" height="2" transform="translate(102 378.586) rotate(45)"/><rect class="d" width="2" height="2" transform="translate(90 370.586) rotate(45)"/><rect class="d" width="2" height="2" transform="translate(96 370.586) rotate(45)"/><rect class="d" width="2" height="2" transform="translate(102 370.586) rotate(45)"/><rect class="d" width="2" height="2" transform="translate(105 366.586) rotate(45)"/></g></svg>