<svg xmlns="http://www.w3.org/2000/svg" width="24" height="24" viewBox="0 0 24 24"><defs><style>.a{fill:red;opacity:0;}.b,.c,.e{fill:none;}.b{stroke:#8998a5;}.b,.c{stroke-linejoin:round;}.c{stroke:#8b97a3;stroke-linecap:round;}.d{stroke:none;}</style></defs><rect class="a" width="24" height="24"/><g class="b" transform="translate(1 1)"><rect class="d" width="22" height="22" rx="2"/><rect class="e" x="0.5" y="0.5" width="21" height="21" rx="1.5"/></g><g transform="translate(-103 -200)"><path class="c" d="M120.5,213.5v-2a1,1,0,0,1,1-1h0a1,1,0,0,1,1,1v4a1,1,0,0,1-1,1h-13a1,1,0,0,1-1-1v-4a1,1,0,0,1,1-1h0a1,1,0,0,1,1,1v2Z"/><rect class="c" width="11" height="7" rx="1" transform="translate(109.5 206.5)"/><line class="c" x1="0.006" y2="2" transform="translate(110.494 216.5)"/><line class="c" x1="0.006" y2="2" transform="translate(119.494 216.5)"/></g></svg>