<svg xmlns="http://www.w3.org/2000/svg" width="48" height="48" viewBox="0 0 48 48"><defs><style>.a{fill:red;opacity:0;}.b,.f,.g{fill:none;}.c{fill:rgba(230,51,35,0);}.d{opacity:0.5;}.e{fill:#9a9a9a;}.e,.f{fill-rule:evenodd;}.f{stroke-linecap:round;}.f,.g{stroke-linejoin:round;}.g{stroke:#9a9a9a;stroke-width:2px;}.h,.i{stroke:none;}.i{fill:#9a9a9a;}</style></defs><rect class="a" width="48" height="48"/><g class="b"><path class="h" d="M24,0A24,24,0,1,1,0,24,24,24,0,0,1,24,0Z"/><path class="i" d="M 24 2 C 21.02914047241211 2 18.1481990814209 2.581401824951172 15.43722152709961 3.728050231933594 C 12.81771850585938 4.836009979248047 10.46474075317383 6.422561645507812 8.443649291992188 8.443649291992188 C 6.422561645507812 10.46474075317383 4.836009979248047 12.81771850585938 3.728050231933594 15.43722152709961 C 2.581401824951172 18.1481990814209 2 21.02914047241211 2 24 C 2 26.97085952758789 2.581401824951172 29.8518009185791 3.728050231933594 32.56278228759766 C 4.836009979248047 35.18228149414062 6.422561645507812 37.53525924682617 8.443649291992188 39.55635070800781 C 10.46474075317383 41.57743835449219 12.81771850585938 43.16399002075195 15.43722152709961 44.27194976806641 C 18.1481990814209 45.41860198974609 21.02914047241211 46 24 46 C 26.97085952758789 46 29.8518009185791 45.41860198974609 32.56278228759766 44.27194976806641 C 35.18228149414062 43.16399002075195 37.53525924682617 41.57743835449219 39.55635070800781 39.55635070800781 C 41.57743835449219 37.53525924682617 43.16399002075195 35.18228149414062 44.27194976806641 32.56278228759766 C 45.41860198974609 29.8518009185791 46 26.97085952758789 46 24 C 46 21.02914047241211 45.41860198974609 18.1481990814209 44.27194976806641 15.43722152709961 C 43.16399002075195 12.81771850585938 41.57743835449219 10.46474075317383 39.55635070800781 8.443649291992188 C 37.53525924682617 6.422561645507812 35.18228149414062 4.836009979248047 32.56278228759766 3.728050231933594 C 29.8518009185791 2.581401824951172 26.97085952758789 2 24 2 M 24 0 C 37.25482940673828 0 48 10.74517059326172 48 24 C 48 37.25482940673828 37.25482940673828 48 24 48 C 10.74517059326172 48 0 37.25482940673828 0 24 C 0 10.74517059326172 10.74517059326172 0 24 0 Z"/></g><rect class="c" width="30" height="30" transform="translate(9.915 10.31)"/><g class="d" transform="translate(-19 -400)"><path class="e" d="M42.588,437.46c-11.638-1.2-10.454-10.818-10.454-10.818a14,14,0,0,0,11.04,1.078,22.083,22.083,0,0,1,11.041-1.078C53.914,437.7,42.588,437.46,42.588,437.46Z"/><g class="f"><path class="h" d="M43.742,409.938a30.121,30.121,0,0,0,6.394,8.594c2.621,2.724,4.863,5.056,4.863,8.147.084,7.711-8.19,13.681-16.941,10.4A10.884,10.884,0,0,1,31,426.894v-.215c0-6.217,7.162-13.972,10.424-17.183C42.384,408.552,43,408,43,408Z"/><path class="i" d="M 42.27708053588867 411.4693603515625 C 40.63423919677734 413.1266784667969 38.47745132446289 415.4845886230469 36.62443923950195 418.1127319335938 C 34.25439071655273 421.4741516113281 33.00107955932617 424.4366760253906 33 426.6789855957031 L 33 426.8940124511719 C 33 428.6808776855469 33.53414154052734 430.4111633300781 34.54467010498047 431.8977661132812 C 35.5771598815918 433.4167175292969 37.03483963012695 434.5614624023438 38.75975036621094 435.2081604003906 C 40.16199111938477 435.7335510253906 41.58749008178711 435.9999694824219 42.99665832519531 435.9999694824219 C 44.43666839599609 435.9999694824219 45.82498168945312 435.72509765625 47.12302017211914 435.1829528808594 C 48.36774826049805 434.6631164550781 49.46815872192383 433.9250793457031 50.39368057250977 432.9894409179688 C 52.09920883178711 431.2652282714844 53.02450942993164 429.0318603515625 52.99911880493164 426.7007751464844 C 52.99903869628906 426.6935119628906 52.99900054931641 426.6862487792969 52.99900054931641 426.6789855957031 C 52.99900054931641 424.4029541015625 51.11756896972656 422.4367370605469 48.72906875610352 419.9543151855469 C 46.08940124511719 417.4653625488281 43.92159271240234 414.6138610839844 42.27708053588867 411.4693603515625 M 43.00299835205078 408 L 43.74200057983398 409.93798828125 C 45.31900024414062 413.1300048828125 47.48300170898438 416.0379943847656 50.13600158691406 418.5320129394531 C 52.75699996948242 421.2560119628906 54.99900054931641 423.5880126953125 54.99900054931641 426.6789855957031 C 55.08300018310547 434.3900146484375 46.80900573730469 440.3599853515625 38.05799865722656 437.0809936523438 C 33.68899917602539 435.4429931640625 31 431.2909851074219 31 426.8940124511719 L 31 426.6789855957031 C 31.00299835205078 420.4620056152344 38.1619987487793 412.7070007324219 41.42399978637695 409.4960021972656 C 42.38399887084961 408.552001953125 43.00299835205078 408 43.00299835205078 408 Z"/></g><path class="g" d="M41.173,416.325a15.113,15.113,0,0,0-3.777,5.408"/></g><line class="g" x2="33" y2="33" transform="translate(8 7)"/></svg>