<svg xmlns="http://www.w3.org/2000/svg" width="24" height="24" viewBox="0 0 24 24"><defs><style>.a{fill:red;opacity:0;}.b{fill:none;stroke-miterlimit:10;}.c,.d{stroke:none;}.d{fill:#4c64f2;}</style></defs><rect class="a" width="24" height="24"/><g class="b" transform="translate(-91 -28)"><path class="c" d="M114,40c-5.152-9.361-16.888-9.305-22,0C97.152,49.361,108.888,49.305,114,40Z"/><path class="d" d="M 103.0028991699219 34.00022888183594 C 101.0491561889648 34.00022888183594 99.11193084716797 34.55522918701172 97.40062713623047 35.60522079467773 C 95.69725036621094 36.65036010742188 94.27005767822266 38.1271858215332 93.15242004394531 39.9996223449707 C 94.27420806884766 41.87687683105469 95.70320129394531 43.35544586181641 97.40634155273438 44.3997917175293 C 99.11334991455078 45.44651031494141 101.0462265014648 45.99977111816406 102.9960174560547 45.99977111816406 C 104.9501266479492 45.99977111816406 106.8876037597656 45.44483184814453 108.5989608764648 44.39495849609375 C 110.302619934082 43.34980773925781 111.7298126220703 41.87313842773438 112.8475799560547 40.0003776550293 C 111.725830078125 38.12319183349609 110.2968444824219 36.64468765258789 108.5936737060547 35.60036849975586 C 106.8867263793945 34.55374145507812 104.9538116455078 34.00041961669922 103.0031204223633 34.00022888183594 L 103.0028991699219 34.00022888183594 M 103.0039749145508 33.0002326965332 C 107.2142944335938 33.00064086914062 111.4280853271484 35.32692718505859 114 40 C 111.43994140625 44.65988159179688 107.2197265625 46.9997673034668 102.9960250854492 46.9997673034668 C 98.78570556640625 46.9997673034668 94.57191467285156 44.67307281494141 92 40 C 94.56005859375 35.34011840820312 98.7802734375 32.99982833862305 103.0039749145508 33.0002326965332 Z"/></g><g class="b" transform="translate(-91 -28)"><path class="c" d="M99,40.052c-.144-5.329,8.005-5.439,8-.107C107.147,45.272,98.968,45.4,99,40.052Z"/><path class="d" d="M 102.9777603149414 43.00020599365234 C 103.8706130981445 43.00020599365234 104.6986236572266 42.67531967163086 105.2494735717773 42.10884857177734 C 105.7710647583008 41.57246780395508 106.0230331420898 40.85384750366211 105.9983901977539 39.97295761108398 L 105.9979858398438 39.95813751220703 L 105.9980010986328 39.94330596923828 C 105.9994735717773 39.07367706298828 105.7372436523438 38.36932754516602 105.2186126708984 37.84981918334961 C 104.6795806884766 37.30987930297852 103.8749313354492 37.00020599365234 103.0109939575195 37.00020599365234 C 102.1233749389648 37.00020599365234 101.2999801635742 37.32313919067383 100.7519302368164 37.88618850708008 C 100.2302093505859 38.42220687866211 99.97777557373047 39.14179611206055 100.0016403198242 40.02498626708984 L 100.0020904541016 40.04166793823242 L 100.0019836425781 40.05835723876953 C 99.99645233154297 40.92755889892578 100.2550354003906 41.63132858276367 100.7705459594727 42.15013885498047 C 101.3073501586914 42.69036865234375 102.1118545532227 43.00020599365234 102.9777603149414 43.00020599365234 M 102.9777603149414 44.00021362304688 C 100.9775314331055 44.00021362304688 98.98518371582031 42.69480133056641 99.00199890136719 40.05199813842773 C 98.92927551269531 37.36050033569336 100.9722900390625 36.00020980834961 103.0109939575195 36.00020980834961 C 105.0087966918945 36.00020980834961 107.0024566650391 37.30600738525391 106.9980010986328 39.94499969482422 C 107.0733032226562 42.63710784912109 105.0214233398438 44.00021362304688 102.9777603149414 44.00021362304688 Z"/></g></svg>