<svg xmlns="http://www.w3.org/2000/svg" width="24" height="24" viewBox="0 0 24 24"><defs><style>.a{fill:red;opacity:0;}.b,.c{fill:none;stroke-linejoin:round;}.c{stroke:#fd6a6c;stroke-linecap:round;stroke-width:2px;}.d,.e{stroke:none;}.e{fill:#fd6a6c;}</style></defs><rect class="a" width="24" height="24"/><g transform="translate(-200 -56)"><g class="b"><path class="d" d="M212,79a11,11,0,1,0-11-11A11,11,0,0,0,212,79Z"/><path class="e" d="M 212 77.00000762939453 C 216.9626159667969 77.00000762939453 221 72.96263122558594 221 68.00000762939453 C 221 63.03739166259766 216.9626159667969 59 212 59 C 207.0373840332031 59 203 63.03739166259766 203 68.00000762939453 C 203 72.96263122558594 207.0373840332031 77.00000762939453 212 77.00000762939453 M 212 79.00000762939453 C 205.9246978759766 79.00000762939453 201 74.07530975341797 201 68.00000762939453 C 201 61.92470169067383 205.9246978759766 57 212 57 C 218.0752868652344 57 223 61.92470169067383 223 68.00000762939453 C 223 74.07530975341797 218.0752868652344 79.00000762939453 212 79.00000762939453 Z"/></g><path class="c" d="M211.006,62.549v6l4,2" transform="translate(0.994 0.451)"/></g></svg>