<svg xmlns="http://www.w3.org/2000/svg" width="32" height="31.998" viewBox="0 0 32 31.998"><defs><style>.a{fill:red;opacity:0;}.b{fill:none;stroke-miterlimit:10;}.c,.d{stroke:none;}.d{fill:#8998a5;}</style></defs><rect class="a" width="32" height="31.998"/><g transform="translate(-18 -56.002)"><g class="b"><path class="c" d="M49,72c-7.026-13.374-23.029-13.294-30,0C26.026,85.374,42.029,85.294,49,72Z"/><path class="d" d="M 33.99625015258789 80.00077056884766 C 36.52798843383789 80.00077056884766 39.04227066040039 79.24480438232422 41.26725006103516 77.8145751953125 C 43.43064880371094 76.4239501953125 45.25883102416992 74.47138214111328 46.7122688293457 72.00166320800781 C 45.25341033935547 69.52500915527344 43.42264556884766 67.56958770751953 41.25930023193359 66.17977142333984 C 39.04008865356445 64.75407409667969 36.53168106079102 64.00048065185547 34.0052490234375 64.00048065185547 C 31.47299003601074 64.00048065185547 28.95840072631836 64.75643157958984 26.73332977294922 66.18659973144531 C 24.56973648071289 67.57725524902344 22.74131202697754 69.5301513671875 21.28773307800293 72.00025939941406 C 22.74653816223145 74.47662353515625 24.57723808288574 76.43173217773438 26.74061012268066 77.82139587402344 C 28.95977973937988 79.24690246582031 31.46829032897949 80.00051116943359 33.99576187133789 80.00077056884766 L 33.99625015258789 80.00077056884766 M 33.99474716186523 82.00077819824219 C 28.25348281860352 82.00019836425781 22.50742530822754 78.67689514160156 19 72.00100708007812 C 22.49103164672852 65.34345245361328 28.2457332611084 62.00048065185547 34.0052490234375 62.00048065185547 C 39.74651718139648 62.00048065185547 45.49257659912109 65.32461547851562 49 72.00100708007812 C 45.50896835327148 78.65805053710938 39.75426483154297 82.00135803222656 33.99474716186523 82.00077819824219 Z"/></g><g class="b"><path class="c" d="M29,72.066c-.179-6.662,10.006-6.8,10-.134C39.184,78.59,28.96,78.744,29,72.066Z"/><path class="d" d="M 33.97200775146484 75.00058746337891 C 34.88683700561523 75.00058746337891 35.72590637207031 74.67724609375 36.27406692504883 74.11346435546875 C 36.7793083190918 73.59384155273438 37.02279663085938 72.8787841796875 36.99778747558594 71.98814392089844 L 36.9969482421875 71.95842742919922 L 36.99699783325195 71.92869567871094 C 36.99845886230469 71.04758453369141 36.74433898925781 70.34554290771484 36.24172973632812 69.84210205078125 C 35.70773696899414 69.30723571777344 34.89565658569336 69.00047302246094 34.01371765136719 69.00047302246094 C 33.10566711425781 69.00047302246094 32.27238845825195 69.32145690917969 31.72756767272949 69.88112640380859 C 31.22160720825195 70.40086364746094 30.97724723815918 71.11788177490234 31.00127792358398 72.01228332519531 L 31.00216865539551 72.04542541503906 L 31.0019588470459 72.07858276367188 C 30.99642753601074 72.95777130126953 31.24631881713867 73.6578369140625 31.74467849731445 74.15934753417969 C 32.27594757080078 74.69396209716797 33.08777618408203 75.00058746337891 33.97200775146484 75.00058746337891 M 33.97200393676758 77.00057983398438 C 31.47168922424316 77.00057983398438 28.98122406005859 75.36913299560547 29.00199890136719 72.06600189208984 C 28.91159057617188 68.70124816894531 31.46549415588379 67.00047302246094 34.01371765136719 67.00047302246094 C 36.51081848144531 67.00047302246094 39.00244140625 68.63276672363281 38.99699783325195 71.93199157714844 C 39.09150314331055 75.2967529296875 36.5266227722168 77.00057983398438 33.97200393676758 77.00057983398438 Z"/></g></g></svg>