<svg xmlns="http://www.w3.org/2000/svg" width="32" height="32" viewBox="0 0 32 32"><defs><style>.a{fill:red;opacity:0;}.b{fill:#4c64f2;}</style></defs><rect class="a" width="32" height="32"/><g transform="translate(3.706 2)"><path class="b" d="M15.219,1.476,12.294,0,9.369,1.476l-3.256.482L4.637,4.826,2.294,7.081l.536,3.166-.536,3.166,2.343,2.254,1.476,2.869,3.256.482,2.925,1.476,2.925-1.476,3.256-.482,1.476-2.869,2.343-2.254-.536-3.166.536-3.166L19.951,4.826,18.475,1.957Zm2.1,2.037,1.2,2.331,1.9,1.831-.435,2.572.435,2.572-1.9,1.831-1.2,2.331-2.646.391-2.375,1.2-2.375-1.2-2.646-.391-1.2-2.331-1.9-1.831.436-2.572L4.169,7.675,6.074,5.844l1.2-2.331,2.646-.391,2.375-1.2,2.376,1.2,2.645.391Z" transform="translate(0)"/><path class="b" d="M4,11.794v6.841l7.225-1.626,7.225,1.626V11.794l-3.645.5-3.58,1.669-3.58-1.669Z" transform="translate(1.069 8.365)"/></g></svg>