<svg xmlns="http://www.w3.org/2000/svg" width="24" height="24" viewBox="0 0 24 24"><defs><style>.a{fill:red;opacity:0;}.b{fill:none;stroke-miterlimit:10;}.c,.d{stroke:none;}.d{fill:#4c64f2;}</style></defs><rect class="a" width="24" height="24"/><g transform="translate(-119 -28)"><g class="b"><path class="c" d="M131,39a4,4,0,1,0-4-4A4,4,0,0,0,131,39Z"/><path class="d" d="M 131 38 C 132.6542053222656 38 134 36.65420913696289 134 35 C 134 33.34579086303711 132.6542053222656 32 131 32 C 129.3457946777344 32 128 33.34579086303711 128 35 C 128 36.65420913696289 129.3457946777344 38 131 38 M 131 39 C 128.7910003662109 39 127 37.20899963378906 127 35 C 127 32.79100036621094 128.7910003662109 31 131 31 C 133.2089996337891 31 135 32.79100036621094 135 35 C 135 37.20899963378906 133.2089996337891 39 131 39 Z"/></g><g class="b"><path class="c" d="M140,47.4a1.526,1.526,0,0,1-1.438,1.6H123.5a1.516,1.516,0,0,1-1.5-1.533V47.4c0-1.6,1.5-6.4,9-6.4S140,45.8,140,47.4Z"/><path class="d" d="M 123.4688186645508 48.00035095214844 L 123.4778671264648 48.000244140625 L 123.4889297485352 48.00000381469727 L 123.5 48.00000381469727 L 138.5 48.00000381469727 L 138.5475006103516 48.00000381469727 C 138.7996673583984 47.98924255371094 139.0062103271484 47.7255973815918 139.0001831054688 47.41965103149414 L 139 47.40983200073242 L 139 47.40000152587891 C 139 46.80404281616211 138.7015533447266 45.47710418701172 137.5829620361328 44.28394317626953 C 136.9552917480469 43.61444091796875 136.1539001464844 43.08297348022461 135.2010192871094 42.70431137084961 C 134.0249633789062 42.23696136474609 132.6115417480469 42.00000381469727 131 42.00000381469727 C 129.3884582519531 42.00000381469727 127.9750366210938 42.23696136474609 126.7989807128906 42.70431137084961 C 125.8460998535156 43.08297348022461 125.0447006225586 43.61444091796875 124.4170379638672 44.28394317626953 C 123.2984466552734 45.47710418701172 123 46.80404281616211 123 47.40000152587891 L 123 47.45437622070312 C 123.009895324707 47.75621032714844 123.2187805175781 48.00036239624023 123.4687728881836 48.00035095214844 L 123.4688186645508 48.00035095214844 M 123.4688186645508 49.00034713745117 C 122.6718368530273 49.00038909912109 122.0177688598633 48.32091522216797 122 47.46700286865234 C 122 47.44500350952148 122 47.42200088500977 122 47.40000152587891 C 122 45.80000305175781 123.5 41.00000381469727 131 41.00000381469727 C 138.5 41.00000381469727 140 45.80000305175781 140 47.40000152587891 C 140.0169982910156 48.2650032043457 139.3730010986328 48.98200225830078 138.5619964599609 49.00000381469727 C 138.5410003662109 49.00000381469727 138.52099609375 49.00000381469727 138.5 49.00000381469727 L 123.5 49.00000381469727 C 123.4896011352539 49.0002326965332 123.4791641235352 49.00034713745117 123.4688186645508 49.00034713745117 Z"/></g></g></svg>